<?xml version="1.0" encoding="utf-8"?>
<!-- Generator: Adobe Illustrator 24.1.2, SVG Export Plug-In . SVG Version: 6.00 Build 0)  -->
<svg version="1.1" id="Layer_1" xmlns="http://www.w3.org/2000/svg" xmlns:xlink="http://www.w3.org/1999/xlink" x="0px" y="0px"
	 viewBox="0 0 1200 300" style="enable-background:new 0 0 1200 300;" xml:space="preserve">
<style type="text/css">
	.st0{fill:#0D1117;}
	.st1{fill:#5AE4A7;}
	.st2{opacity:0.8;fill:#FFFFFF;}
	.st3{fill:none;stroke:#B2B2B2;stroke-linecap:round;stroke-linejoin:round;stroke-miterlimit:10;}
	.st4{fill:#1A2E35;}
	.st5{opacity:0.4;fill:#FFFFFF;}
	.st6{fill:none;stroke:#FFFFFF;stroke-width:0.5504;stroke-linecap:round;stroke-linejoin:round;}
	.st7{fill:#FFFFFF;}
	.st8{fill:#5AE4A7;stroke:#1A2E35;stroke-width:0.5504;stroke-miterlimit:10;}
	.st9{fill:none;stroke:#1A2E35;stroke-width:0.5504;stroke-miterlimit:10;}
	.st10{opacity:0.31;}
	.st11{fill:none;stroke:#1A2E35;stroke-linecap:round;stroke-linejoin:round;stroke-miterlimit:10;}
	.st12{fill:#FFFFFF;stroke:#1A2E35;stroke-linecap:round;stroke-linejoin:round;stroke-miterlimit:10;}
	.st13{fill:#1A2E35;stroke:#1A2E35;stroke-linecap:round;stroke-linejoin:round;stroke-miterlimit:10;}
	.st14{fill:#5AE4A7;stroke:#FFFFFF;stroke-miterlimit:10;}
	.st15{fill:#CCCCCC;}
	.st16{fill:#5AE4A7;stroke:#1A2E35;stroke-linecap:round;stroke-linejoin:round;stroke-miterlimit:10;}
	.st17{fill:none;stroke:#1A2E35;stroke-width:0.5;stroke-linecap:round;stroke-linejoin:round;stroke-miterlimit:10;}
	.st18{fill:#FFFFFF;stroke:#1A2E35;stroke-width:2;stroke-linecap:round;stroke-linejoin:round;stroke-miterlimit:10;}
	.st19{fill:none;stroke:#B0B0B0;stroke-linecap:round;stroke-linejoin:round;stroke-miterlimit:10;}
	.st20{fill:#1A2E35;stroke:#1A2E35;stroke-miterlimit:10;}
	.st21{fill:#FFFFFF;stroke:#1A2E35;stroke-miterlimit:10;}
	.st22{fill:#5AE4A7;stroke:#1A2E35;stroke-miterlimit:10;}
	.st23{fill:none;stroke:#1A2E35;stroke-miterlimit:10;}
	.st24{fill:#FACA08;}
	.st25{fill:#196FBA;}
	.st26{fill:#4399E6;}
	.st27{fill:#FFB508;}
	.st28{fill:#FDD708;}
	.st29{fill:#FEB808;}
	.st30{fill:#FED809;}
	.st31{fill:#FFB808;}
	.st32{fill:#FECE08;}
	.st33{fill:#FEC208;}
	.st34{fill:#FEB208;}
	.st35{fill:#FEC708;}
	.st36{fill:#FEBC08;}
	.st37{fill:#FFBF08;}
	.st38{fill:#FED308;}
	.st39{fill:#FFC408;}
	.st40{fill:#FFD008;}
	.st41{fill:#FFCA08;}
	.st42{fill:#FDC209;}
	.st43{fill:#FECA08;}
	.st44{fill:#FCC80B;}
	.st45{fill:#FFD009;}
	.st46{fill:#FDC709;}
	.st47{fill:#FFC409;}
	.st48{fill:#FFBF09;}
	.st49{fill:#FEB70A;}
	.st50{fill:#FEBA09;}
	.st51{fill:#FBD410;}
	.st52{fill:#FFB50A;}
	.st53{fill:#FEB509;}
	.st54{fill:#F2BB19;}
	.st55{fill:#F8CC20;}
	.st56{fill:#FED30B;}
	.st57{fill:#FEC80E;}
	.st58{fill:#FEB40F;}
	.st59{fill:#EEBD30;}
	.st60{fill:#BAA530;}
	.st61{fill:#FDC51E;}
	.st62{fill:#FEBA1A;}
	.st63{fill:#BBAB33;}
	.st64{fill:#FDD96B;}
	.st65{fill:#6EACEA;}
	.st66{fill:#6CB2EB;}
	.st67{fill:#7ABCEE;}
	.st68{fill:#5890CA;}
	.st69{fill:#81B8DD;}
	.st70{fill:#5B97CD;}
	.st71{fill:#B2CFEF;}
	.st72{fill:#8FBDDF;}
	.st73{fill:#FDDC90;}
	.st74{fill:#6199D5;}
	.st75{fill:#4981C7;}
	.st76{fill:#B9AE42;}
	.st77{fill:#9FA545;}
	.st78{fill:#A19E43;}
	.st79{fill:url(#SVGID_1_);}
</style>
<rect x="1.1" y="-4.5" class="st0" width="1198.9" height="304.5"/>
<g>
	<path class="st1" d="M466,298.6c24.6-38.5,30.9-87.1,23.8-131.6c-1.3-8.6-3.3-16.9-5.9-25.1c-17.2-54.6-61.5-98.3-113.8-121.3
		c-50-22-113.1-32.8-160.4,1c-31.2,22.3-48.8,58-77.4,82.9c-14.2,12.4-29.7,16.5-46.6,23.9c-41.1,18.1-75.5,53-78.4,99.1
		c-1.6,26.8,4.9,50.7,17,71.2H466z"/>
	<path class="st2" d="M466,298.6c24.6-38.5,30.9-87.1,23.8-131.6c-1.3-8.6-3.3-16.9-5.9-25.1c-17.2-54.6-61.5-98.3-113.8-121.3
		c-50-22-113.1-32.8-160.4,1c-31.2,22.3-48.8,58-77.4,82.9c-14.2,12.4-29.7,16.5-46.6,23.9c-41.1,18.1-75.5,53-78.4,99.1
		c-1.6,26.8,4.9,50.7,17,71.2H466z"/>
</g>
<g>
	<path class="st3" d="M371.2,17.5c-0.2-0.7-0.5-1.4-0.7-2.1c-9.4-26.2-53.2-28-53.2,4.2c0,6.2-14.9,0-20.4,8.1
		c-5.6,8.1,0.6,13-6.8,15.5c-7.4,2.5-8.1-3.7-17.3-3.1c-9.3,0.6-8.1,9.3-11.2,11.8c-3.1,2.5-3.1,1.2-9.9,1.9
		c-6.8,0.6-8.1,5.6-8.1,5.6h162.9c0,0,6.2-18.6-5-25.4c-11.2-6.8-11.2,2.5-19.8-1.2C374.5,29.5,373.2,23.6,371.2,17.5z"/>
	<path class="st3" d="M376.8,52.4c0,0,3.4-10.4-4.9-18.1c-8.3-7.7-16.9-3.4-19.3,0c-2.5,3.4-2.5,9.8-6.4,10.4
		c-4,0.6-3.1-6.8-11.7-4.9c-8.6,1.8-5.2,10.4-9.2,12.3c-4,1.8-4-4.9-9.5-2.8c-5.5,2.1-5.2,6.1-5.2,6.1"/>
	<path class="st3" d="M332.7,31.5c0,0-6.8-5.5-15.7-1.4c-8.9,4.1-4.8,12.6-8.9,14.7c-4.1,2.1-6.1-0.3-11.3,2.1
		c-5.1,2.4-4.8,5.8-4.8,5.8"/>
</g>
<g>
	<path class="st3" d="M245.2,12c-0.1-0.3-0.2-0.6-0.3-0.9c-4.1-11.4-23.1-12.2-23.1,1.8c0,2.7-6.5,0-8.9,3.5c-2.4,3.5,0.3,5.7-3,6.7
		c-3.2,1.1-3.5-1.6-7.5-1.3c-4,0.3-3.5,4-4.9,5.1c-1.3,1.1-1.3,0.5-4.3,0.8c-3,0.3-3.5,2.4-3.5,2.4h70.9c0,0,2.7-8.1-2.2-11.1
		c-4.9-3-4.9,1.1-8.6-0.5C246.7,17.2,246.1,14.7,245.2,12z"/>
	<path class="st3" d="M247.7,27.2c0,0,1.5-4.5-2.1-7.9c-3.6-3.3-7.3-1.5-8.4,0c-1.1,1.5-1.1,4.3-2.8,4.5c-1.7,0.3-1.3-2.9-5.1-2.1
		c-3.7,0.8-2.3,4.5-4,5.3c-1.7,0.8-1.7-2.1-4.1-1.2c-2.4,0.9-2.3,2.7-2.3,2.7"/>
	<path class="st3" d="M228.5,18.1c0,0-3-2.4-6.8-0.6c-3.9,1.8-2.1,5.5-3.9,6.4s-2.7-0.1-4.9,0.9c-2.2,1-2.1,2.5-2.1,2.5"/>
</g>
<g>
	<path class="st3" d="M620.3,12c-0.1-0.3-0.2-0.6-0.3-0.9c-4.1-11.4-23.1-12.2-23.1,1.8c0,2.7-6.5,0-8.9,3.5c-2.4,3.5,0.3,5.7-3,6.7
		c-3.2,1.1-3.5-1.6-7.5-1.3c-4,0.3-3.5,4-4.9,5.1c-1.3,1.1-1.3,0.5-4.3,0.8c-3,0.3-3.5,2.4-3.5,2.4h70.9c0,0,2.7-8.1-2.2-11.1
		c-4.9-3-4.9,1.1-8.6-0.5C621.7,17.2,621.2,14.7,620.3,12z"/>
	<path class="st3" d="M622.7,27.2c0,0,1.5-4.5-2.1-7.9c-3.6-3.3-7.3-1.5-8.4,0c-1.1,1.5-1.1,4.3-2.8,4.5c-1.7,0.3-1.3-2.9-5.1-2.1
		c-3.7,0.8-2.3,4.5-4,5.3c-1.7,0.8-1.7-2.1-4.1-1.2c-2.4,0.9-2.3,2.7-2.3,2.7"/>
	<path class="st3" d="M603.6,18.1c0,0-3-2.4-6.8-0.6c-3.9,1.8-2.1,5.5-3.9,6.4c-1.8,0.9-2.7-0.1-4.9,0.9c-2.2,1-2.1,2.5-2.1,2.5"/>
</g>
<g>
	<path class="st4" d="M82.4,264.2c1.3,0.6,4.4,0.5,4.4,0.5c0,0-0.7-2.1-0.7-2.2c-0.7-1.4-2.9-3.8-4.6-3.6c-1.3,0.2-2,1.4-1.7,2.6
		C80,262.8,81.3,263.8,82.4,264.2z"/>
	<path class="st4" d="M113.2,297.4c0.5-1.1,0.1-2.5-1.2-2.9c-1.7-0.6-4.3,1.4-5.2,2.6c0,0.1-0.4,0.6-0.6,1.1h6.4
		C112.8,298,113,297.7,113.2,297.4z"/>
	<path class="st4" d="M103.6,289.1c0.9,0.8,3,1.5,3.8,1.8c-0.1,0.6-0.3,1.2-0.4,1.8c-0.1,0.4-0.2,0.8-0.3,1.2
		c-0.1,0.4-0.3,0.8-0.4,1.2c-0.3,0.7-0.5,1.5-0.8,2.2c-0.1,0.3-0.3,0.7-0.4,1h1.1c0.1-0.2,0.2-0.4,0.2-0.7c0.3-0.7,0.5-1.5,0.8-2.3
		c0.1-0.4,0.2-0.8,0.4-1.2c0.1-0.4,0.2-0.8,0.3-1.2c0.2-1,0.4-2,0.6-3c0.6,0.2,3,1,4.1,1c1.2-0.1,2.7-0.5,3.4-1.6
		c0.7-1,0.4-2.5-0.7-3.1c-1.6-0.8-4.4,0.7-5.6,1.8c-0.1,0.1-0.8,1-1.2,1.5c0.1-0.6,0.2-1.2,0.3-1.8c0.2-1.8,0.4-3.6,0.6-5.4
		c0.1-0.5,0.1-1.1,0.2-1.6c0.2,0.1,2.9,1.1,4.3,1c1.2-0.1,2.7-0.5,3.4-1.6c0.7-1,0.4-2.5-0.7-3.1c-1.6-0.8-4.4,0.7-5.6,1.8
		c-0.1,0.1-1.1,1.4-1.4,1.7c0.1-1.2,0.3-2.4,0.5-3.6c0.3-1.6,0.6-3.2,1-4.7c0.1,0,2.9,1.1,4.3,1c1.2-0.1,2.7-0.5,3.4-1.6
		c0.7-1,0.4-2.5-0.7-3.1c-1.6-0.8-4.4,0.7-5.6,1.8c-0.1,0.1-1.2,1.5-1.4,1.7c0-0.1,0-0.2,0.1-0.3c0.5-1.6,1.2-3.1,1.9-4.5
		c0.4-0.8,0.8-1.5,1.3-2.2c0.5,0.3,2.8,1.4,4.1,1.4c1.2,0,2.7-0.2,3.5-1.2c0.8-1,0.7-2.4-0.4-3.1c-1.5-1-4.5,0.2-5.7,1.2
		c-0.1,0.1-0.7,0.7-1.1,1.1c0.2-0.3,0.4-0.6,0.6-0.9c0.7-1.1,1.5-2.1,2.2-3c0.4-0.5,0.7-0.9,1.1-1.3c0.6,0,3.2-0.1,4.3-0.6
		c1.1-0.5,2.3-1.5,2.6-2.7c0.3-1.2-0.5-2.5-1.8-2.6c-1.8-0.2-3.9,2.2-4.5,3.7c-0.1,0.1-0.7,2.2-0.7,2.2c0,0,0,0,0,0
		c-0.3,0.4-0.7,0.8-1.1,1.3c-0.7,0.9-1.5,1.8-2.2,2.9c-0.8,1.1-1.6,2.3-2.3,3.7c-0.7,1.4-1.5,2.9-2,4.5c0,0,0,0,0,0.1
		c0-0.5,0-2,0-2.1c-0.2-1.6-1.5-4.5-3.3-4.8c-1.3-0.2-2.3,0.8-2.4,2c-0.1,1.3,0.8,2.5,1.7,3.3c1,0.9,3.8,1.8,4,1.8
		c-0.5,1.5-0.9,3.2-1.2,4.9c-0.2,1-0.3,1.9-0.4,2.9c0-0.5,0-0.9,0-0.9c-0.2-1.6-1.5-4.5-3.3-4.8c-1.3-0.2-2.3,0.8-2.4,2
		c-0.1,1.3,0.8,2.5,1.7,3.3c0.9,0.8,3.3,1.6,3.9,1.8c0,0.4-0.1,0.7-0.1,1.1c-0.2,1.8-0.4,3.6-0.7,5.3c-0.1,0.6-0.2,1.2-0.3,1.8
		c0-0.4,0-0.7,0-0.8c-0.2-1.6-1.5-4.5-3.3-4.8c-1.3-0.2-2.3,0.8-2.4,2C101.8,287,102.7,288.3,103.6,289.1z"/>
	<path class="st4" d="M83.4,273.3c1.3,0.2,4.1-0.6,4.4-0.7c0.4,1.6,1,3.1,1.7,4.7c0.4,0.9,0.8,1.8,1.2,2.7c-0.3-0.4-0.5-0.7-0.5-0.7
		c-1-1.2-3.8-2.9-5.4-2.2c-1.2,0.5-1.5,1.9-0.9,3c0.6,1.1,2.1,1.7,3.2,1.8c1.2,0.2,3.6-0.5,4.2-0.6c0.2,0.3,0.3,0.7,0.5,1
		c0.8,1.6,1.6,3.2,2.4,4.8c0.3,0.6,0.5,1.1,0.7,1.7c-0.2-0.3-0.4-0.6-0.5-0.6c-1-1.2-3.8-2.9-5.4-2.2c-1.2,0.5-1.5,1.9-0.9,3
		c0.6,1.1,2.1,1.7,3.2,1.8c1.1,0.2,3.4-0.4,4.1-0.6c0.2,0.6,0.5,1.2,0.7,1.7c0.1,0.4,0.3,0.8,0.4,1.2c0.1,0.4,0.2,0.8,0.3,1.2
		c0.2,0.8,0.4,1.5,0.5,2.3c0.1,0.5,0.2,1,0.3,1.5c-0.3-0.6-0.8-1.7-0.8-1.7c-0.8-1.4-3.3-3.5-5-3c-1.2,0.3-1.8,1.7-1.4,2.8
		c0.4,1.1,1.6,1.8,2.6,2.2h5.7c0-0.1-0.1-0.2-0.1-0.4c0.2-0.1,1.4-0.6,2.4-1.1c0.5,0.5,1.3,1.1,2.1,1.5h1.7c0.1-0.6,0.2-1.4,0.2-1.5
		c0-1.1-0.4-2.8-1.1-4c0-0.2,0-0.3,0-0.5c-0.2-1.2-1.3-2.1-2.6-1.8c-1.7,0.5-2.8,3.5-2.9,5.1c0,0.1,0.1,1.1,0.1,1.8
		c-0.1-0.4-0.2-0.7-0.3-1.1c-0.2-0.8-0.4-1.5-0.6-2.3c-0.1-0.4-0.2-0.8-0.4-1.2c-0.1-0.4-0.3-0.8-0.4-1.2c-0.3-0.9-0.7-1.9-1.1-2.8
		c0.7-0.2,3-0.8,4-1.5c0.9-0.7,1.9-1.9,1.9-3.2c0-1.2-1-2.3-2.3-2.2c-1.8,0.2-3.3,3-3.6,4.6c0,0.1-0.1,1.2-0.2,1.9
		c-0.3-0.6-0.5-1.1-0.8-1.7c-0.8-1.6-1.6-3.2-2.5-4.8c-0.3-0.5-0.5-1-0.8-1.5c0.2-0.1,3.1-0.7,4.1-1.5c0.9-0.7,1.9-1.9,1.9-3.2
		c0-1.2-1-2.3-2.3-2.2c-1.8,0.2-3.3,3-3.6,4.6c0,0.1-0.2,1.8-0.2,2.2c-0.6-1.1-1.1-2.2-1.6-3.2c-0.7-1.5-1.3-3-1.7-4.5
		c0.1,0,3.1-0.7,4.2-1.5c0.9-0.7,1.9-1.9,1.9-3.2c0-1.2-1-2.3-2.3-2.2c-1.8,0.2-3.3,3-3.6,4.6c0,0.1-0.2,1.9-0.2,2.2
		c0-0.1-0.1-0.2-0.1-0.3c-0.5-1.6-0.7-3.2-0.9-4.8c-0.1-0.9-0.1-1.7-0.2-2.6c0.6-0.1,3.1-0.4,4.2-1.1c1-0.6,2.1-1.7,2.3-2.9
		c0.1-1.2-0.7-2.4-2-2.4c-1.8,0-3.6,2.6-4.1,4.2c0,0.1-0.2,1-0.3,1.6c0-0.4,0-0.8,0-1.1c0-1.4,0.1-2.6,0.2-3.7
		c0.1-0.6,0.1-1.2,0.2-1.7c0.5-0.4,2.6-1.8,3.2-2.9c0.6-1,1.1-2.5,0.7-3.7c-0.5-1.1-1.8-1.8-2.9-1.2c-1.6,0.8-2,4-1.7,5.6
		c0,0.1,0.6,2.2,0.6,2.2c0,0,0,0,0,0c-0.1,0.5-0.1,1-0.2,1.6c-0.1,1.1-0.2,2.3-0.3,3.7c0,1.4,0,2.8,0.1,4.4c0.1,1.6,0.4,3.2,0.8,4.8
		c0,0,0,0,0,0.1c-0.3-0.4-1.1-1.6-1.2-1.7c-1-1.2-3.8-2.9-5.4-2.2c-1.2,0.5-1.5,1.9-0.9,3C80.8,272.6,82.3,273.1,83.4,273.3z"/>
	<path class="st4" d="M114.1,264.9c0,0,0.6-2.1,0.6-2.2c0.2-1.6-0.3-4.8-1.9-5.5c-1.2-0.6-2.5,0.1-2.9,1.3c-0.4,1.2,0.1,2.6,0.8,3.6
		C111.4,263.2,114.1,264.9,114.1,264.9z"/>
</g>
<g>
	<path class="st4" d="M51.1,277.3c0.8,0.3,2.7,0.3,2.7,0.3c0,0-0.4-1.3-0.5-1.3c-0.4-0.9-1.8-2.3-2.8-2.2c-0.8,0.1-1.2,0.9-1,1.6
		C49.7,276.5,50.4,277,51.1,277.3z"/>
	<path class="st4" d="M70.1,297.7c0.3-0.7,0-1.5-0.7-1.8c-1-0.3-2.6,0.8-3.2,1.6c0,0-0.2,0.4-0.4,0.7h4
		C69.9,298.1,70,297.9,70.1,297.7z"/>
	<path class="st4" d="M64.2,292.6c0.5,0.5,1.9,0.9,2.3,1.1c-0.1,0.4-0.2,0.8-0.3,1.1c-0.1,0.2-0.1,0.5-0.2,0.7
		c-0.1,0.2-0.2,0.5-0.2,0.7c-0.2,0.5-0.3,0.9-0.5,1.4c-0.1,0.2-0.2,0.4-0.2,0.6h0.6c0-0.1,0.1-0.3,0.1-0.4c0.2-0.5,0.3-0.9,0.5-1.4
		c0.1-0.2,0.1-0.5,0.2-0.7c0.1-0.2,0.1-0.5,0.2-0.8c0.1-0.6,0.3-1.2,0.4-1.8c0.4,0.1,1.8,0.6,2.5,0.6c0.7-0.1,1.6-0.3,2.1-1
		c0.4-0.6,0.3-1.5-0.4-1.9c-1-0.5-2.7,0.4-3.4,1.1c0,0-0.5,0.6-0.7,0.9c0.1-0.4,0.1-0.7,0.2-1.1c0.1-1.1,0.2-2.2,0.3-3.3
		c0-0.3,0.1-0.7,0.1-1c0.1,0.1,1.8,0.7,2.6,0.6c0.7-0.1,1.6-0.3,2.1-1c0.4-0.6,0.3-1.5-0.4-1.9c-1-0.5-2.7,0.4-3.4,1.1
		c-0.1,0.1-0.7,0.8-0.8,1.1c0.1-0.7,0.2-1.5,0.3-2.2c0.2-1,0.4-2,0.6-2.9c0.1,0,1.8,0.7,2.6,0.6c0.7-0.1,1.6-0.3,2.1-1
		c0.4-0.6,0.3-1.5-0.4-1.9c-1-0.5-2.7,0.4-3.4,1.1c-0.1,0.1-0.7,0.9-0.9,1.1c0-0.1,0-0.1,0-0.2c0.3-1,0.7-1.9,1.1-2.7
		c0.2-0.5,0.5-0.9,0.8-1.4c0.3,0.2,1.7,0.9,2.5,0.9c0.7,0,1.7-0.1,2.2-0.7c0.5-0.6,0.4-1.5-0.2-1.9c-0.9-0.6-2.8,0.1-3.5,0.7
		c0,0-0.4,0.4-0.7,0.7c0.1-0.2,0.2-0.4,0.4-0.6c0.5-0.7,0.9-1.3,1.3-1.8c0.2-0.3,0.5-0.6,0.7-0.8c0.4,0,1.9-0.1,2.6-0.4
		c0.7-0.3,1.4-0.9,1.6-1.7c0.2-0.7-0.3-1.5-1.1-1.6c-1.1-0.1-2.4,1.4-2.8,2.3c0,0.1-0.4,1.4-0.4,1.4c0,0,0,0,0,0
		c-0.2,0.2-0.4,0.5-0.7,0.8c-0.4,0.5-0.9,1.1-1.4,1.8c-0.5,0.7-1,1.4-1.4,2.3c-0.5,0.8-0.9,1.8-1.2,2.8c0,0,0,0,0,0
		c0-0.3,0-1.2,0-1.3c-0.1-1-0.9-2.8-2-3c-0.8-0.1-1.4,0.5-1.5,1.2c-0.1,0.8,0.5,1.5,1,2c0.6,0.6,2.3,1.1,2.5,1.1c-0.3,1-0.5,2-0.7,3
		c-0.1,0.6-0.2,1.2-0.3,1.8c0-0.3,0-0.5,0-0.6c-0.1-1-0.9-2.8-2-3c-0.8-0.1-1.4,0.5-1.5,1.2c-0.1,0.8,0.5,1.5,1,2
		c0.6,0.5,2,1,2.4,1.1c0,0.2-0.1,0.5-0.1,0.7c-0.1,1.1-0.3,2.2-0.4,3.3c-0.1,0.4-0.1,0.8-0.2,1.1c0-0.2,0-0.5,0-0.5
		c-0.1-1-0.9-2.8-2-3c-0.8-0.1-1.4,0.5-1.5,1.2C63.1,291.4,63.6,292.1,64.2,292.6z"/>
	<path class="st4" d="M51.8,282.9c0.8,0.1,2.5-0.4,2.7-0.4c0.3,1,0.6,1.9,1,2.9c0.2,0.5,0.5,1.1,0.8,1.6c-0.2-0.2-0.3-0.4-0.3-0.5
		c-0.6-0.7-2.3-1.8-3.3-1.4c-0.7,0.3-0.9,1.2-0.6,1.8c0.4,0.7,1.3,1,2,1.1c0.7,0.1,2.2-0.3,2.6-0.4c0.1,0.2,0.2,0.4,0.3,0.6
		c0.5,1,1,2,1.5,3c0.2,0.3,0.3,0.7,0.5,1c-0.1-0.2-0.3-0.4-0.3-0.4c-0.6-0.7-2.3-1.8-3.3-1.4c-0.7,0.3-0.9,1.2-0.6,1.8
		c0.4,0.7,1.3,1,2,1.1c0.7,0.1,2.1-0.3,2.5-0.4c0.1,0.4,0.3,0.7,0.4,1.1c0.1,0.2,0.2,0.5,0.2,0.7c0.1,0.2,0.1,0.5,0.2,0.7
		c0.1,0.5,0.2,1,0.3,1.4c0.1,0.3,0.1,0.6,0.2,0.9c-0.2-0.3-0.5-1-0.5-1.1c-0.5-0.8-2-2.1-3.1-1.9c-0.8,0.2-1.1,1-0.8,1.7
		c0.2,0.7,1,1.1,1.6,1.4h3.5c0-0.1,0-0.2,0-0.2c0.1-0.1,0.9-0.3,1.5-0.7c0.3,0.3,0.8,0.7,1.3,0.9h1c0.1-0.4,0.1-0.9,0.1-0.9
		c0-0.7-0.2-1.7-0.7-2.5c0-0.1,0-0.2,0-0.3c-0.1-0.7-0.8-1.3-1.6-1.1c-1.1,0.3-1.7,2.1-1.8,3.1c0,0.1,0,0.7,0.1,1.1
		c-0.1-0.2-0.1-0.5-0.2-0.7c-0.1-0.5-0.2-0.9-0.4-1.4c-0.1-0.2-0.1-0.5-0.2-0.7c-0.1-0.2-0.2-0.5-0.3-0.7c-0.2-0.6-0.5-1.1-0.7-1.7
		c0.4-0.1,1.9-0.5,2.4-0.9c0.6-0.4,1.2-1.2,1.2-2c0-0.8-0.6-1.4-1.4-1.3c-1.1,0.1-2,1.9-2.2,2.8c0,0.1-0.1,0.8-0.1,1.2
		c-0.2-0.3-0.3-0.7-0.5-1c-0.5-1-1-2-1.5-2.9c-0.2-0.3-0.3-0.6-0.5-0.9c0.1,0,1.9-0.4,2.5-0.9c0.6-0.4,1.2-1.2,1.2-2
		c0-0.8-0.6-1.4-1.4-1.3c-1.1,0.1-2,1.9-2.2,2.8c0,0.1-0.1,1.1-0.1,1.3c-0.3-0.7-0.7-1.3-1-2c-0.4-0.9-0.8-1.8-1.1-2.8
		c0.1,0,1.9-0.4,2.6-0.9c0.6-0.4,1.2-1.2,1.2-2c0-0.8-0.6-1.4-1.4-1.3c-1.1,0.1-2,1.9-2.2,2.8c0,0.1-0.1,1.2-0.1,1.4
		c0-0.1,0-0.1-0.1-0.2c-0.3-1-0.5-2-0.6-2.9c-0.1-0.5-0.1-1.1-0.1-1.6c0.3,0,1.9-0.3,2.6-0.6c0.6-0.4,1.3-1,1.4-1.8
		c0.1-0.8-0.5-1.5-1.2-1.5c-1.1,0-2.2,1.6-2.5,2.6c0,0.1-0.1,0.6-0.2,1c0-0.2,0-0.5,0-0.7c0-0.8,0.1-1.6,0.1-2.3
		c0-0.4,0.1-0.7,0.1-1.1c0.3-0.2,1.6-1.1,2-1.8c0.4-0.6,0.7-1.5,0.4-2.2c-0.3-0.7-1.1-1.1-1.8-0.7c-1,0.5-1.2,2.5-1.1,3.4
		c0,0.1,0.4,1.4,0.4,1.4c0,0,0,0,0,0c0,0.3-0.1,0.6-0.1,1c-0.1,0.7-0.1,1.4-0.2,2.3c0,0.8,0,1.7,0.1,2.7c0.1,1,0.2,2,0.5,3
		c0,0,0,0,0,0c-0.2-0.3-0.7-1-0.7-1.1c-0.6-0.7-2.3-1.8-3.3-1.4c-0.7,0.3-0.9,1.2-0.6,1.8C50.2,282.5,51.1,282.8,51.8,282.9z"/>
	<path class="st4" d="M70.6,277.7c0,0,0.4-1.3,0.4-1.4c0.1-1-0.2-2.9-1.2-3.4c-0.7-0.3-1.5,0.1-1.8,0.8c-0.3,0.7,0.1,1.6,0.5,2.2
		C69,276.7,70.6,277.7,70.6,277.7z"/>
</g>
<g>
	<path class="st4" d="M574,277.3c0.8,0.3,2.7,0.3,2.7,0.3c0,0-0.4-1.3-0.5-1.3c-0.4-0.9-1.8-2.3-2.8-2.2c-0.8,0.1-1.2,0.9-1,1.6
		C572.6,276.5,573.4,277,574,277.3z"/>
	<path class="st4" d="M593,297.7c0.3-0.7,0-1.5-0.7-1.8c-1-0.3-2.6,0.8-3.2,1.6c0,0-0.2,0.4-0.4,0.7h4
		C592.8,298.1,592.9,297.9,593,297.7z"/>
	<path class="st4" d="M587.1,292.6c0.5,0.5,1.9,0.9,2.3,1.1c-0.1,0.4-0.2,0.8-0.3,1.1c-0.1,0.2-0.1,0.5-0.2,0.7
		c-0.1,0.2-0.2,0.5-0.2,0.7c-0.2,0.5-0.3,0.9-0.5,1.4c-0.1,0.2-0.2,0.4-0.2,0.6h0.6c0-0.1,0.1-0.3,0.1-0.4c0.2-0.5,0.3-0.9,0.5-1.4
		c0.1-0.2,0.1-0.5,0.2-0.7c0.1-0.2,0.1-0.5,0.2-0.8c0.1-0.6,0.3-1.2,0.4-1.8c0.4,0.1,1.8,0.6,2.5,0.6c0.7-0.1,1.6-0.3,2.1-1
		c0.4-0.6,0.3-1.5-0.4-1.9c-1-0.5-2.7,0.4-3.4,1.1c0,0-0.5,0.6-0.7,0.9c0.1-0.4,0.1-0.7,0.2-1.1c0.1-1.1,0.2-2.2,0.3-3.3
		c0-0.3,0.1-0.7,0.1-1c0.1,0.1,1.8,0.7,2.6,0.6c0.7-0.1,1.6-0.3,2.1-1c0.4-0.6,0.3-1.5-0.4-1.9c-1-0.5-2.7,0.4-3.4,1.1
		c-0.1,0.1-0.7,0.8-0.8,1.1c0.1-0.7,0.2-1.5,0.3-2.2c0.2-1,0.4-2,0.6-2.9c0.1,0,1.8,0.7,2.6,0.6c0.7-0.1,1.6-0.3,2.1-1
		c0.4-0.6,0.3-1.5-0.4-1.9c-1-0.5-2.7,0.4-3.4,1.1c-0.1,0.1-0.7,0.9-0.9,1.1c0-0.1,0-0.1,0-0.2c0.3-1,0.7-1.9,1.1-2.7
		c0.2-0.5,0.5-0.9,0.8-1.4c0.3,0.2,1.7,0.9,2.5,0.9c0.7,0,1.7-0.1,2.2-0.7c0.5-0.6,0.4-1.5-0.2-1.9c-0.9-0.6-2.8,0.1-3.5,0.7
		c0,0-0.4,0.4-0.7,0.7c0.1-0.2,0.2-0.4,0.4-0.6c0.5-0.7,0.9-1.3,1.3-1.8c0.2-0.3,0.5-0.6,0.7-0.8c0.4,0,1.9-0.1,2.6-0.4
		c0.7-0.3,1.4-0.9,1.6-1.7c0.2-0.7-0.3-1.5-1.1-1.6c-1.1-0.1-2.4,1.4-2.8,2.3c0,0.1-0.4,1.4-0.4,1.4c0,0,0,0,0,0
		c-0.2,0.2-0.4,0.5-0.7,0.8c-0.4,0.5-0.9,1.1-1.4,1.8c-0.5,0.7-1,1.4-1.4,2.3c-0.5,0.8-0.9,1.8-1.2,2.8c0,0,0,0,0,0
		c0-0.3,0-1.2,0-1.3c-0.1-1-0.9-2.8-2-3c-0.8-0.1-1.4,0.5-1.5,1.2c-0.1,0.8,0.5,1.5,1,2c0.6,0.6,2.3,1.1,2.5,1.1c-0.3,1-0.5,2-0.7,3
		c-0.1,0.6-0.2,1.2-0.3,1.8c0-0.3,0-0.5,0-0.6c-0.1-1-0.9-2.8-2-3c-0.8-0.1-1.4,0.5-1.5,1.2c-0.1,0.8,0.5,1.5,1,2
		c0.6,0.5,2,1,2.4,1.1c0,0.2-0.1,0.5-0.1,0.7c-0.1,1.1-0.3,2.2-0.4,3.3c-0.1,0.4-0.1,0.8-0.2,1.1c0-0.2,0-0.5,0-0.5
		c-0.1-1-0.9-2.8-2-3c-0.8-0.1-1.4,0.5-1.5,1.2C586,291.4,586.6,292.1,587.1,292.6z"/>
	<path class="st4" d="M574.7,282.9c0.8,0.1,2.5-0.4,2.7-0.4c0.3,1,0.6,1.9,1,2.9c0.2,0.5,0.5,1.1,0.8,1.6c-0.2-0.2-0.3-0.4-0.3-0.5
		c-0.6-0.7-2.3-1.8-3.3-1.4c-0.7,0.3-0.9,1.2-0.6,1.8c0.4,0.7,1.3,1,2,1.1c0.7,0.1,2.2-0.3,2.6-0.4c0.1,0.2,0.2,0.4,0.3,0.6
		c0.5,1,1,2,1.5,3c0.2,0.3,0.3,0.7,0.5,1c-0.1-0.2-0.3-0.4-0.3-0.4c-0.6-0.7-2.3-1.8-3.3-1.4c-0.7,0.3-0.9,1.2-0.6,1.8
		c0.4,0.7,1.3,1,2,1.1c0.7,0.1,2.1-0.3,2.5-0.4c0.1,0.4,0.3,0.7,0.4,1.1c0.1,0.2,0.2,0.5,0.2,0.7c0.1,0.2,0.1,0.5,0.2,0.7
		c0.1,0.5,0.2,1,0.3,1.4c0.1,0.3,0.1,0.6,0.2,0.9c-0.2-0.3-0.5-1-0.5-1.1c-0.5-0.8-2-2.1-3.1-1.9c-0.8,0.2-1.1,1-0.8,1.7
		c0.2,0.7,1,1.1,1.6,1.4h3.5c0-0.1,0-0.2-0.1-0.2c0.1-0.1,0.9-0.3,1.5-0.7c0.3,0.3,0.8,0.7,1.3,0.9h1c0.1-0.4,0.1-0.9,0.1-0.9
		c0-0.7-0.2-1.7-0.7-2.5c0-0.1,0-0.2,0-0.3c-0.1-0.7-0.8-1.3-1.6-1.1c-1.1,0.3-1.7,2.1-1.8,3.1c0,0.1,0,0.7,0.1,1.1
		c-0.1-0.2-0.1-0.5-0.2-0.7c-0.1-0.5-0.2-0.9-0.4-1.4c-0.1-0.2-0.1-0.5-0.2-0.7c-0.1-0.2-0.2-0.5-0.3-0.7c-0.2-0.6-0.5-1.1-0.7-1.7
		c0.4-0.1,1.9-0.5,2.4-0.9c0.6-0.4,1.2-1.2,1.2-2c0-0.8-0.6-1.4-1.4-1.3c-1.1,0.1-2,1.9-2.2,2.8c0,0.1-0.1,0.8-0.1,1.2
		c-0.2-0.3-0.3-0.7-0.5-1c-0.5-1-1-2-1.5-2.9c-0.2-0.3-0.3-0.6-0.5-0.9c0.1,0,1.9-0.4,2.5-0.9c0.6-0.4,1.2-1.2,1.2-2
		c0-0.8-0.6-1.4-1.4-1.3c-1.1,0.1-2,1.9-2.2,2.8c0,0.1-0.1,1.1-0.1,1.3c-0.3-0.7-0.7-1.3-1-2c-0.4-0.9-0.8-1.8-1.1-2.8
		c0.1,0,1.9-0.4,2.6-0.9c0.6-0.4,1.2-1.2,1.2-2c0-0.8-0.6-1.4-1.4-1.3c-1.1,0.1-2,1.9-2.2,2.8c0,0.1-0.1,1.2-0.1,1.4
		c0-0.1,0-0.1-0.1-0.2c-0.3-1-0.5-2-0.6-2.9c-0.1-0.5-0.1-1.1-0.1-1.6c0.3,0,1.9-0.3,2.6-0.6c0.6-0.4,1.3-1,1.4-1.8
		c0.1-0.8-0.5-1.5-1.2-1.5c-1.1,0-2.2,1.6-2.5,2.6c0,0.1-0.1,0.6-0.2,1c0-0.2,0-0.5,0-0.7c0-0.8,0.1-1.6,0.1-2.3
		c0-0.4,0.1-0.7,0.1-1.1c0.3-0.2,1.6-1.1,2-1.8c0.4-0.6,0.7-1.5,0.4-2.2c-0.3-0.7-1.1-1.1-1.8-0.7c-1,0.5-1.2,2.5-1.1,3.4
		c0,0.1,0.4,1.4,0.4,1.4c0,0,0,0,0,0c0,0.3-0.1,0.6-0.1,1c-0.1,0.7-0.1,1.4-0.2,2.3c0,0.8,0,1.7,0.1,2.7c0.1,1,0.2,2,0.5,3
		c0,0,0,0,0,0c-0.2-0.3-0.7-1-0.7-1.1c-0.6-0.7-2.3-1.8-3.3-1.4c-0.7,0.3-0.9,1.2-0.6,1.8C573.1,282.5,574,282.8,574.7,282.9z"/>
	<path class="st4" d="M593.5,277.7c0,0,0.4-1.3,0.4-1.4c0.1-1-0.2-2.9-1.2-3.4c-0.7-0.3-1.5,0.1-1.8,0.8c-0.3,0.7,0.1,1.6,0.5,2.2
		C591.9,276.7,593.5,277.7,593.5,277.7z"/>
</g>
<g>
	<path class="st1" d="M35.5,115.2c0,0,30.9,3.1,46.5,22.2c0,0,16.5-22.2,46.2-21.7C136.8,105.3,142,92,142,77.5
		c0-33.1-26.8-60-60-60c-33.1,0-60,26.8-60,60C22,91.8,27.1,105,35.5,115.2L35.5,115.2z"/>
	<path class="st5" d="M35.5,115.2c0,0,30.9,3.1,46.5,22.2c0,0,16.5-22.2,46.2-21.7C136.8,105.3,142,92,142,77.5
		c0-33.1-26.8-60-60-60c-33.1,0-60,26.8-60,60C22,91.8,27.1,105,35.5,115.2L35.5,115.2z"/>
	<path class="st4" d="M111.7,80.6c0,0-18.4,4.4-28.6,19.2l-0.6-21.6l0,0.3c0,0,10.4-18.8,29.2-24.5c0,0-19.3,4.6-29.3,20.3l-1.4-29
		l-0.4,41.6c-9.8-14.9-27.7-19.3-27.7-19.3c15.8,5,25.5,19.9,27.7,23.6l-0.1,21.5c-9.8-14.7-27.5-19-27.5-19
		c15.4,4.9,25,19.2,27.5,23.3l-0.4,181.8h5.2l-1.3-169.3c3.4-5.1,13-17.8,27.8-22.3c0,0-17.6,4.2-27.9,18.2l-0.6-21.4
		C85.7,99.9,95.7,85.5,111.7,80.6z"/>
	<path class="st4" d="M111.7,80.6c0,0-18.4,4.4-28.6,19.2l-0.6-21.6l0,0.3c0,0,10.4-18.8,29.2-24.5c0,0-19.3,4.6-29.3,20.3l-1.4-29
		l-0.4,41.6c-9.8-14.9-27.7-19.3-27.7-19.3c15.8,5,25.5,19.9,27.7,23.6l-0.1,21.5c-9.8-14.7-27.5-19-27.5-19
		c15.4,4.9,25,19.2,27.5,23.3l-0.4,181.8h5.2l-1.3-169.3c3.4-5.1,13-17.8,27.8-22.3c0,0-17.6,4.2-27.9,18.2l-0.6-21.4
		C85.7,99.9,95.7,85.5,111.7,80.6z"/>
</g>
<g>
	<path class="st1" d="M0.8,226.5c0,0,21.5,2.1,32.4,15.4c0,0,11.5-15.4,32.2-15.1c6-7.2,9.6-16.5,9.6-26.6
		c0-23.1-18.7-41.8-41.7-41.8c-23.1,0-41.8,18.7-41.8,41.7C-8.6,210.2-5.1,219.4,0.8,226.5L0.8,226.5z"/>
	<path class="st5" d="M0.8,226.5c0,0,21.5,2.1,32.4,15.4c0,0,11.5-15.4,32.2-15.1c6-7.2,9.6-16.5,9.6-26.6
		c0-23.1-18.7-41.8-41.7-41.8c-23.1,0-41.8,18.7-41.8,41.7C-8.6,210.2-5.1,219.4,0.8,226.5L0.8,226.5z"/>
	<path class="st4" d="M12.8,211.4c10.7,3.4,17.4,13.4,19.1,16.2l-0.2,71h3.1l-0.5-62.2c2.3-3.5,9-12.4,19.4-15.5
		c0,0-12.3,2.9-19.4,12.7l-0.4-14.9c1.8-2.8,8.7-12.9,19.8-16.3c0,0-12.8,3-19.9,13.4l-0.4-15l0,0.2c0,0,7.3-13.1,20.3-17
		c0,0-13.4,3.2-20.4,14.1l-1-20.2l-0.3,29c-6.8-10.4-19.3-13.4-19.3-13.4c11,3.5,17.7,13.9,19.2,16.4L32,224.7
		C25.1,214.5,12.8,211.4,12.8,211.4z"/>
	<path class="st4" d="M12.8,211.4c10.7,3.4,17.4,13.4,19.1,16.2l-0.2,71h3.1l-0.5-62.2c2.3-3.5,9-12.4,19.4-15.5
		c0,0-12.3,2.9-19.4,12.7l-0.4-14.9c1.8-2.8,8.7-12.9,19.8-16.3c0,0-12.8,3-19.9,13.4l-0.4-15l0,0.2c0,0,7.3-13.1,20.3-17
		c0,0-13.4,3.2-20.4,14.1l-1-20.2l-0.3,29c-6.8-10.4-19.3-13.4-19.3-13.4c11,3.5,17.7,13.9,19.2,16.4L32,224.7
		C25.1,214.5,12.8,211.4,12.8,211.4z"/>
</g>
<g>
	<path class="st1" d="M532.5,176.2c0,0,36.5,3.6,55,26.2c0,0,19.5-26.2,54.6-25.7c10.2-12.3,16.3-28,16.3-45.2
		c0-39.1-31.7-70.9-70.9-70.9c-39.1,0-70.9,31.7-70.9,70.9C516.6,148.5,522.6,164,532.5,176.2L532.5,176.2z"/>
	<path class="st5" d="M532.5,176.2c0,0,36.5,3.6,55,26.2c0,0,19.5-26.2,54.6-25.7c10.2-12.3,16.3-28,16.3-45.2
		c0-39.1-31.7-70.9-70.9-70.9c-39.1,0-70.9,31.7-70.9,70.9C516.6,148.5,522.6,164,532.5,176.2L532.5,176.2z"/>
	<path class="st4" d="M553,150.6c18.2,5.8,29.5,22.7,32.5,27.6l-0.3,120.5h5.2L589.7,193c4-6,15.3-21,32.9-26.4
		c0,0-20.8,4.9-33,21.6l-0.7-25.3c3-4.8,14.7-21.9,33.7-27.6c0,0-21.8,5.2-33.8,22.7l-0.7-25.5l0,0.3c0,0,12.3-22.2,34.5-28.9
		c0,0-22.8,5.4-34.6,23.9l-1.7-34.3l-0.5,49.2C574.2,125,553,119.8,553,119.8c18.7,5.9,30.1,23.5,32.7,27.9l-0.2,25.4
		C573.9,155.7,553,150.6,553,150.6z"/>
	<path class="st4" d="M553,150.6c18.2,5.8,29.5,22.7,32.5,27.6l-0.3,120.5h5.2L589.7,193c4-6,15.3-21,32.9-26.4
		c0,0-20.8,4.9-33,21.6l-0.7-25.3c3-4.8,14.7-21.9,33.7-27.6c0,0-21.8,5.2-33.8,22.7l-0.7-25.5l0,0.3c0,0,12.3-22.2,34.5-28.9
		c0,0-22.8,5.4-34.6,23.9l-1.7-34.3l-0.5,49.2C574.2,125,553,119.8,553,119.8c18.7,5.9,30.1,23.5,32.7,27.9l-0.2,25.4
		C573.9,155.7,553,150.6,553,150.6z"/>
</g>
<g>
	<g>
		<g>
			<line class="st6" x1="488.9" y1="49" x2="469.1" y2="68.8"/>
			<g>
				<polygon class="st7" points="466.3,71.5 468.6,66.1 469.3,68.6 471.8,69.3 				"/>
			</g>
		</g>
	</g>
	<g>
		<g>
			<line class="st6" x1="499.3" y1="52.9" x2="489.8" y2="69.3"/>
			<g>
				<polygon class="st7" points="487.9,72.6 488.7,66.8 490,69 492.5,69 				"/>
			</g>
		</g>
	</g>
	<g>
		<g>
			<line class="st6" x1="493.2" y1="30.7" x2="431.6" y2="69.1"/>
			<g>
				<polygon class="st7" points="428.4,71.2 431.8,66.4 431.9,69 434.2,70.2 				"/>
			</g>
		</g>
	</g>
</g>
<g>
	
		<ellipse transform="matrix(0.9791 -0.2036 0.2036 0.9791 6.5836 105.2945)" class="st8" cx="515.1" cy="20.6" rx="17.9" ry="17.9"/>
	<line class="st9" x1="515.1" y1="-10.5" x2="515.1" y2="-1.9"/>
	<line class="st9" x1="515.1" y1="43.2" x2="515.1" y2="51.8"/>
	<line class="st9" x1="546.3" y1="20.6" x2="537.7" y2="20.6"/>
	<line class="st9" x1="492.5" y1="20.6" x2="483.9" y2="20.6"/>
	<line class="st9" x1="537.1" y1="-1.4" x2="531.1" y2="4.7"/>
	<line class="st9" x1="499.1" y1="36.6" x2="493" y2="42.7"/>
	<line class="st9" x1="493" y1="-1.4" x2="499.1" y2="4.7"/>
	<line class="st9" x1="531.1" y1="36.6" x2="537.1" y2="42.7"/>
</g>
<g>
	<rect x="132.9" y="191.1" class="st7" width="416.2" height="107.1"/>
	<rect x="132.9" y="191.1" class="st10" width="416.2" height="19.1"/>
	<rect x="132.9" y="191.1" class="st11" width="416.2" height="107.1"/>
	<rect x="128.6" y="191.1" class="st12" width="424.7" height="4.9"/>
	<polygon class="st13" points="554.5,191.2 124.1,191.2 160,68.3 518.6,68.3 	"/>
	<g>
		<g>
			<polygon class="st14" points="210.6,171.8 145.8,171.8 170.5,80.4 227.3,80.7 			"/>
			<line class="st14" x1="184.5" y1="80.6" x2="161.9" y2="171.6"/>
			<line class="st14" x1="199.1" y1="80.7" x2="178.6" y2="171.6"/>
			<line class="st14" x1="213.8" y1="80.7" x2="195.3" y2="171.6"/>
			<line class="st14" x1="167.2" y1="93.1" x2="225.4" y2="93.3"/>
			<line class="st14" x1="163.2" y1="107.6" x2="222.7" y2="107.8"/>
			<line class="st14" x1="159.2" y1="122.8" x2="220" y2="122.9"/>
			<line class="st14" x1="154.9" y1="138.6" x2="217.1" y2="138.7"/>
			<line class="st14" x1="150.4" y1="155.2" x2="214.1" y2="155.2"/>
		</g>
		<polygon class="st14" points="286.1,171.8 221.9,171.8 237.2,80.7 293.7,80.9 		"/>
		<line class="st14" x1="251.1" y1="80.9" x2="237.8" y2="171.6"/>
		<line class="st14" x1="265.7" y1="81" x2="254.4" y2="171.6"/>
		<line class="st14" x1="280.3" y1="81" x2="271" y2="171.6"/>
		<line class="st14" x1="235.2" y1="93.3" x2="293" y2="93.6"/>
		<line class="st14" x1="232.7" y1="107.8" x2="291.9" y2="108"/>
		<line class="st14" x1="230.2" y1="122.9" x2="290.6" y2="123.1"/>
		<line class="st14" x1="227.6" y1="138.7" x2="289.3" y2="138.8"/>
		<line class="st14" x1="224.8" y1="155.2" x2="288" y2="155.3"/>
	</g>
	<g>
		<g>
			<polygon class="st14" points="466.9,171.8 531.6,171.8 507,80.4 450.2,80.7 			"/>
			<line class="st14" x1="493" y1="80.6" x2="515.6" y2="171.6"/>
			<line class="st14" x1="478.4" y1="80.7" x2="498.9" y2="171.6"/>
			<line class="st14" x1="463.7" y1="80.7" x2="482.2" y2="171.6"/>
			<line class="st14" x1="510.3" y1="93.1" x2="452.1" y2="93.3"/>
			<line class="st14" x1="514.2" y1="107.6" x2="454.8" y2="107.8"/>
			<line class="st14" x1="518.3" y1="122.8" x2="457.5" y2="122.9"/>
			<line class="st14" x1="522.6" y1="138.6" x2="460.4" y2="138.7"/>
			<line class="st14" x1="527.1" y1="155.2" x2="463.4" y2="155.2"/>
		</g>
		<polygon class="st14" points="391.3,171.8 455.6,171.8 440.3,80.7 383.8,80.9 		"/>
		<line class="st14" x1="426.4" y1="80.9" x2="439.7" y2="171.6"/>
		<line class="st14" x1="411.8" y1="81" x2="423.1" y2="171.6"/>
		<line class="st14" x1="397.2" y1="81" x2="406.5" y2="171.6"/>
		<line class="st14" x1="442.3" y1="93.3" x2="384.4" y2="93.6"/>
		<line class="st14" x1="444.7" y1="107.8" x2="385.6" y2="108"/>
		<line class="st14" x1="447.3" y1="122.9" x2="386.9" y2="123.1"/>
		<line class="st14" x1="449.9" y1="138.7" x2="388.2" y2="138.8"/>
		<line class="st14" x1="452.7" y1="155.2" x2="389.5" y2="155.3"/>
	</g>
	<g>
		<rect x="308.9" y="210.2" class="st15" width="8" height="13.9"/>
		<rect x="308.9" y="227" class="st15" width="8" height="12.5"/>
		<rect x="308.9" y="242.4" class="st15" width="8" height="12.5"/>
		<rect x="308.9" y="257.8" class="st15" width="8" height="16"/>
		<rect x="297.2" y="257.8" class="st15" width="9.7" height="16"/>
		<rect x="297.2" y="242.4" class="st15" width="9.7" height="12.5"/>
		<rect x="297.2" y="227" class="st15" width="9.7" height="12.5"/>
		<rect x="297.2" y="210.2" class="st15" width="9.7" height="13.9"/>
	</g>
	<g>
		<rect x="375.7" y="210.2" class="st15" width="8" height="13.9"/>
		<rect x="375.7" y="227" class="st15" width="8" height="12.5"/>
		<rect x="375.7" y="242.4" class="st15" width="8" height="12.5"/>
		<rect x="375.7" y="257.8" class="st15" width="8" height="16"/>
		<rect x="364" y="257.8" class="st15" width="9.7" height="16"/>
		<rect x="364" y="242.4" class="st15" width="9.7" height="12.5"/>
		<rect x="364" y="227" class="st15" width="9.7" height="12.5"/>
		<rect x="364" y="210.2" class="st15" width="9.7" height="13.9"/>
	</g>
	<g>
		<rect x="319.8" y="209.5" class="st16" width="41.8" height="80"/>
		<rect x="325.8" y="214.2" class="st17" width="30.3" height="39.1"/>
		<rect x="325.8" y="268.1" class="st17" width="30.3" height="16.2"/>
		<rect x="325.8" y="258" class="st17" width="30.3" height="6.1"/>
		<rect x="320.8" y="248.5" class="st4" width="3.8" height="12.8"/>
	</g>
	<g>
		<circle class="st11" cx="341.3" cy="197.4" r="7"/>
		<g>
			<polygon class="st18" points="344.1,210.2 338.6,210.2 337.5,203.4 345.1,203.4 			"/>
			<polygon class="st12" points="343.5,198 339.1,198 336.8,203.4 345.8,203.4 			"/>
			<rect x="340.2" y="195.4" class="st13" width="2.2" height="2.6"/>
		</g>
	</g>
	<g>
		<g>
			<path class="st12" d="M303.1,199.3l10.7-3.4c16.2-5.1,33.6-5.3,49.9-0.5l13.1,3.9h21.4v-25.8l-59.5-70.5l-58.4,70.5v25.8H303.1z"
				/>
			<g>
				<rect x="280.3" y="288.8" class="st13" width="117.9" height="9.4"/>
				<g>
					<line class="st19" x1="304.2" y1="289.7" x2="304.2" y2="297.1"/>
					<line class="st19" x1="310.3" y1="289.7" x2="310.3" y2="297.1"/>
					<line class="st19" x1="316.4" y1="289.7" x2="316.4" y2="297.1"/>
					<line class="st19" x1="322.5" y1="289.7" x2="322.5" y2="297.1"/>
					<line class="st19" x1="328.6" y1="289.7" x2="328.6" y2="297.1"/>
					<line class="st19" x1="334.7" y1="289.7" x2="334.7" y2="297.1"/>
					<line class="st19" x1="340.8" y1="289.7" x2="340.8" y2="297.1"/>
					<line class="st19" x1="346.9" y1="289.7" x2="346.9" y2="297.1"/>
					<line class="st19" x1="353" y1="289.7" x2="353" y2="297.1"/>
					<line class="st19" x1="359.1" y1="289.7" x2="359.1" y2="297.1"/>
					<line class="st19" x1="365.2" y1="289.7" x2="365.2" y2="297.1"/>
					<line class="st19" x1="371.3" y1="289.7" x2="371.3" y2="297.1"/>
					<line class="st19" x1="377.4" y1="289.7" x2="377.4" y2="297.1"/>
				</g>
			</g>
		</g>
		<polygon class="st12" points="339.3,94 267.2,185.7 302,185.7 302,176.7 284.3,176.7 339.3,109 394.2,176.7 376.7,176.7 
			376.7,185.7 411.3,185.7 		"/>
		<rect x="267.2" y="185.7" class="st12" width="34.7" height="8.3"/>
		<g>
			<rect x="272.9" y="207.6" class="st12" width="10.3" height="84.7"/>
			<rect x="272.4" y="204.5" class="st12" width="11.5" height="3.2"/>
			<rect x="271.6" y="194.1" class="st12" width="13.1" height="10.5"/>
			
				<rect x="272.4" y="284.6" transform="matrix(-1 -1.224647e-16 1.224647e-16 -1 556.2108 572.3884)" class="st12" width="11.5" height="3.2"/>
			
				<rect x="271.6" y="287.6" transform="matrix(-1 -1.224647e-16 1.224647e-16 -1 556.2108 585.7598)" class="st12" width="13.1" height="10.5"/>
		</g>
		<g>
			<rect x="288.3" y="207.6" class="st12" width="10.3" height="84.7"/>
			<rect x="287.7" y="204.5" class="st12" width="11.5" height="3.2"/>
			<rect x="286.9" y="194.1" class="st12" width="13.1" height="10.5"/>
			
				<rect x="287.7" y="284.6" transform="matrix(-1 -1.224647e-16 1.224647e-16 -1 586.9402 572.3884)" class="st12" width="11.5" height="3.2"/>
			
				<rect x="286.9" y="287.6" transform="matrix(-1 -1.224647e-16 1.224647e-16 -1 586.9403 585.7598)" class="st12" width="13.1" height="10.5"/>
		</g>
		<rect x="376.6" y="185.7" class="st12" width="34.7" height="8.3"/>
		<g>
			<rect x="382.3" y="207.6" class="st12" width="10.3" height="84.7"/>
			<rect x="381.8" y="204.5" class="st12" width="11.5" height="3.2"/>
			<rect x="381" y="194.1" class="st12" width="13.1" height="10.5"/>
			
				<rect x="381.8" y="284.6" transform="matrix(-1 -1.224647e-16 1.224647e-16 -1 775.0098 572.3884)" class="st12" width="11.5" height="3.2"/>
			
				<rect x="381" y="287.6" transform="matrix(-1 -1.224647e-16 1.224647e-16 -1 775.0097 585.7598)" class="st12" width="13.1" height="10.5"/>
		</g>
		<g>
			<rect x="397.7" y="207.6" class="st12" width="10.3" height="84.7"/>
			<rect x="397.1" y="204.5" class="st12" width="11.5" height="3.2"/>
			<rect x="396.3" y="194.1" class="st12" width="13.1" height="10.5"/>
			
				<rect x="397.1" y="284.6" transform="matrix(-1 -1.224647e-16 1.224647e-16 -1 805.7395 572.3884)" class="st12" width="11.5" height="3.2"/>
			
				<rect x="396.3" y="287.6" transform="matrix(-1 -1.224647e-16 1.224647e-16 -1 805.7394 585.7598)" class="st12" width="13.1" height="10.5"/>
		</g>
	</g>
	<g>
		<g>
			<rect x="167.5" y="242.4" class="st15" width="9.9" height="12.5"/>
			<rect x="157.4" y="210.2" class="st15" width="8" height="13.9"/>
			<rect x="157.4" y="227" class="st15" width="8" height="12.5"/>
			<rect x="167.5" y="227" class="st15" width="9.9" height="12.5"/>
			<rect x="157.4" y="242.4" class="st15" width="8" height="12.5"/>
			<rect x="167.5" y="210.2" class="st15" width="9.9" height="13.9"/>
			<rect x="157.4" y="257.8" class="st15" width="8" height="16"/>
			<rect x="167.5" y="257.8" class="st15" width="9.9" height="16"/>
			<rect x="145.7" y="257.8" class="st15" width="9.7" height="16"/>
			<rect x="145.7" y="242.4" class="st15" width="9.7" height="12.5"/>
			<rect x="145.7" y="227" class="st15" width="9.7" height="12.5"/>
			<rect x="145.7" y="210.2" class="st15" width="9.7" height="13.9"/>
		</g>
		<g>
			<rect x="205.5" y="242.4" class="st15" width="9.9" height="12.5"/>
			<rect x="195.4" y="210.2" class="st15" width="8" height="13.9"/>
			<rect x="195.4" y="227" class="st15" width="8" height="12.5"/>
			<rect x="205.5" y="227" class="st15" width="9.9" height="12.5"/>
			<rect x="195.4" y="242.4" class="st15" width="8" height="12.5"/>
			<rect x="205.5" y="210.2" class="st15" width="9.9" height="13.9"/>
			<rect x="195.4" y="257.8" class="st15" width="8" height="16"/>
			<rect x="205.5" y="257.8" class="st15" width="9.9" height="16"/>
			<rect x="183.7" y="257.8" class="st15" width="9.7" height="16"/>
			<rect x="183.7" y="242.4" class="st15" width="9.7" height="12.5"/>
			<rect x="183.7" y="227" class="st15" width="9.7" height="12.5"/>
			<rect x="183.7" y="210.2" class="st15" width="9.7" height="13.9"/>
		</g>
		<g>
			<rect x="243.6" y="242.4" class="st15" width="9.9" height="12.5"/>
			<rect x="233.5" y="210.2" class="st15" width="8" height="13.9"/>
			<rect x="233.5" y="227" class="st15" width="8" height="12.5"/>
			<rect x="243.6" y="227" class="st15" width="9.9" height="12.5"/>
			<rect x="233.5" y="242.4" class="st15" width="8" height="12.5"/>
			<rect x="243.6" y="210.2" class="st15" width="9.9" height="13.9"/>
			<rect x="233.5" y="257.8" class="st15" width="8" height="16"/>
			<rect x="243.6" y="257.8" class="st15" width="9.9" height="16"/>
			<rect x="221.7" y="257.8" class="st15" width="9.7" height="16"/>
			<rect x="221.7" y="242.4" class="st15" width="9.7" height="12.5"/>
			<rect x="221.7" y="227" class="st15" width="9.7" height="12.5"/>
			<rect x="221.7" y="210.2" class="st15" width="9.7" height="13.9"/>
		</g>
		<rect x="140.7" y="203.4" class="st11" width="117.2" height="75.4"/>
	</g>
	<g>
		<g>
			<rect x="450.7" y="242.4" class="st15" width="9.9" height="12.5"/>
			<rect x="440.6" y="210.2" class="st15" width="8" height="13.9"/>
			<rect x="440.6" y="227" class="st15" width="8" height="12.5"/>
			<rect x="450.7" y="227" class="st15" width="9.9" height="12.5"/>
			<rect x="440.6" y="242.4" class="st15" width="8" height="12.5"/>
			<rect x="450.7" y="210.2" class="st15" width="9.9" height="13.9"/>
			<rect x="440.6" y="257.8" class="st15" width="8" height="16"/>
			<rect x="450.7" y="257.8" class="st15" width="9.9" height="16"/>
			<rect x="428.8" y="257.8" class="st15" width="9.7" height="16"/>
			<rect x="428.8" y="242.4" class="st15" width="9.7" height="12.5"/>
			<rect x="428.8" y="227" class="st15" width="9.7" height="12.5"/>
			<rect x="428.8" y="210.2" class="st15" width="9.7" height="13.9"/>
		</g>
		<g>
			<rect x="488.7" y="242.4" class="st15" width="9.9" height="12.5"/>
			<rect x="478.6" y="210.2" class="st15" width="8" height="13.9"/>
			<rect x="478.6" y="227" class="st15" width="8" height="12.5"/>
			<rect x="488.7" y="227" class="st15" width="9.9" height="12.5"/>
			<rect x="478.6" y="242.4" class="st15" width="8" height="12.5"/>
			<rect x="488.7" y="210.2" class="st15" width="9.9" height="13.9"/>
			<rect x="478.6" y="257.8" class="st15" width="8" height="16"/>
			<rect x="488.7" y="257.8" class="st15" width="9.9" height="16"/>
			<rect x="466.9" y="257.8" class="st15" width="9.7" height="16"/>
			<rect x="466.9" y="242.4" class="st15" width="9.7" height="12.5"/>
			<rect x="466.9" y="227" class="st15" width="9.7" height="12.5"/>
			<rect x="466.9" y="210.2" class="st15" width="9.7" height="13.9"/>
		</g>
		<g>
			<rect x="526.7" y="242.4" class="st15" width="9.9" height="12.5"/>
			<rect x="516.6" y="210.2" class="st15" width="8" height="13.9"/>
			<rect x="516.6" y="227" class="st15" width="8" height="12.5"/>
			<rect x="526.7" y="227" class="st15" width="9.9" height="12.5"/>
			<rect x="516.6" y="242.4" class="st15" width="8" height="12.5"/>
			<rect x="526.7" y="210.2" class="st15" width="9.9" height="13.9"/>
			<rect x="516.6" y="257.8" class="st15" width="8" height="16"/>
			<rect x="526.7" y="257.8" class="st15" width="9.9" height="16"/>
			<rect x="504.9" y="257.8" class="st15" width="9.7" height="16"/>
			<rect x="504.9" y="242.4" class="st15" width="9.7" height="12.5"/>
			<rect x="504.9" y="227" class="st15" width="9.7" height="12.5"/>
			<rect x="504.9" y="210.2" class="st15" width="9.7" height="13.9"/>
		</g>
		<rect x="423.8" y="203.4" class="st11" width="117.2" height="75.4"/>
	</g>
</g>
<g>
	<line class="st11" x1="677.2" y1="298.7" x2="684.9" y2="298.7"/>
	<line class="st11" x1="13.2" y1="298.7" x2="666.5" y2="298.7"/>
	<line class="st11" x1="-2.3" y1="298.7" x2="4.5" y2="298.7"/>
</g>
<g>
	<g>
		<path class="st20" d="M640.9,161.7c0,0-1.7,38.6-1.5,60.5s2.9,58.5,2.9,58.5l-1.9,3.5l0.2,5.2l12.1,3.5l0.8-4.4
			c0,0,2.1-1.7,2.1-2.7c0-1-0.2-6.7-0.2-8.3c0-1.7,6.9-79.3,6.9-79.3l2.9-0.2l13.4,85.4l-2.7,1.7l3.8,7.3l6.3-2.1l6.7,0.4
			c0,0,1.9-4.6,1.9-5.4c0-0.8-2.3-1.9-2.3-3.3c0-1.5-2.3-89.2-2.3-89.2l-4-31.1H640.9z"/>
		<path class="st21" d="M640.7,289.5l-6.9,5.4c0,0-8.8,3.3-8.6,4.8c0.2,1.5,1.9,1.7,3.1,1.7s24.8,0,24.8,0l-0.4-8.3L640.7,289.5z"/>
		<path class="st21" d="M679.7,292.5c0,0,2.7,8.8,3.5,9.8c0.8,1,8.6,4.4,10.6,3.8c2.1-0.6,4.4-3.5,3.5-6.5c-0.8-2.9-4.8-8.8-4.8-8.8
			l-6.7-0.4L679.7,292.5z"/>
	</g>
	<path class="st21" d="M663,86.2l-10.4,1.5c0,0-4.6,11.7-6.3,31.1c-1.7,19.4-0.2,43.6-0.2,43.6h35.5c0,0,9.2-51.8,6.3-60.3
		c-2.9-8.6-7.7-13.6-7.7-13.6L663,86.2z"/>
	<g>
		<path class="st22" d="M654.3,94.1c0,0-4.8,15.9-4.8,29.6s2.1,63.9,2.1,63.9l-19.2-4l4.6-32.8l-2.1-35.1l-16.1,16.9l-12-6.8
			c0,0,26.6-36.2,27.4-36.4c0.8-0.2,23.7-4.6,23.7-4.6L654.3,94.1z"/>
		<g>
			<polyline class="st23" points="633.7,103.9 634.9,115.8 630.7,102.9 			"/>
			<line class="st23" x1="633.2" y1="98.7" x2="633.4" y2="101.3"/>
		</g>
	</g>
	<g>
		<path class="st22" d="M678.5,85.5c0,0,23.6,6,24.5,6.2c0.8,0.2,26.5,47.1,26.5,47.1l-11.5,5l-21.3-26.2l-4.4,37.9l5.6,29
			l-24.8,1.9l-2.1-29.6l4.4-64.1L678.5,85.5z"/>
		<polyline class="st23" points="693.4,107.9 696.6,117.6 691.5,111.4 		"/>
	</g>
	<g>
		<path class="st20" d="M656.7,48.1c0,0-3.9-2.8-3.5-4.1c0.4-1.3,8.9-6.3,10.2-6.8c1.3-0.6,16.8,2.8,19.4,4.4
			c2.6,1.7,5.4,11.5,5.7,16.1c0.4,4.6-11.1,13.7-11.1,13.7l-7.4,0.2l0.9-5.5l-7.6-1.5l1.3-6.3l-6.8-7.6l1.8-4.2L656.7,48.1z"/>
		<path class="st21" d="M659.1,81.3l-6.3,8.2c0,0-3.2,8.5-2.5,8c0.7-0.4,4.7-4.2,4.7-4.2l9.4,5.7l10.9-5.4l5.4,5.8
			c0,0,1.2-16.5,0.3-17.8c-0.9-1.3-5.5-2.3-6.7-2.5C673.1,78.9,659.1,81.3,659.1,81.3z"/>
		<path class="st21" d="M658.9,44.1c0,0-8.1,8.7-7.2,10.5c0.9,1.8,1.1,3.1,1.1,3.1s-6.5,5.7-5.5,6.8c0.9,1.1,3.5,2.6,3.5,2.6
			s-1.1,7.8,0,9.6c1.1,1.8,7.2,0.7,7.2,0.7s4.2,22.9,6.5,21.4c2.2-1.5,12.7-15.1,12.6-16.8c-0.2-1.7,0.4-10.2,0.4-10.7
			c0-0.6-3.7-0.2-3.7-0.2s4.8-7,3-9.1c-1.8-2-5.5-1.5-6.8-0.6c-1.3,0.9-2,2-2,2l-2-0.6c0,0,1.5-3.3,1.7-4.2c0.2-0.9-4.2-5.4-4.1-6.1
			c0-0.1,0.3-0.5,0.7-0.9c1.5-1.7,4.9-5,4.9-5L658.9,44.1z"/>
		<path class="st4" d="M656.4,59.3c-0.1,0.9-0.5,1.6-0.8,1.6c-0.4,0-0.6-0.8-0.5-1.7s0.5-1.6,0.8-1.6
			C656.3,57.6,656.5,58.4,656.4,59.3z"/>
		<path class="st23" d="M654.3,54.9c0,0,2.3-1.7,3.9,0.5"/>
		<path class="st23" d="M652,68.8c0,0,4.5,0.3,6.7-2.3"/>
		<polygon class="st20" points="658,77.5 664.7,76.5 659.1,83 		"/>
	</g>
	<polygon class="st21" points="619.5,156.2 624.3,151.6 619.2,148 	"/>
	<polygon class="st21" points="621.8,139 625.6,143.4 622.7,153.5 617.8,149.5 	"/>
	<path class="st22" d="M611.4,119.5c0,0-6,7.4-7,9.8s15.2,26.9,15.2,26.9l3.9-15.5l-2.9-8.6l1.3-5l-6.5-2.5"/>
	<path class="st21" d="M625.1,143.2l8.1-1.1c0,0,5.8,5.3,6.1,6c0.3,0.7,0.1,1.3-0.1,2.2c-0.3,1-1.1,1.7-1.1,1.7s-2.2,5.4-2.6,6.1
		c-0.4,0.7-2.9,0.4-3.9,0.3c-1-0.1-8.9-4.8-8.9-4.8L625.1,143.2z"/>
	<polygon class="st21" points="704.8,144 702.7,146.6 706.1,155.3 710.5,152.7 	"/>
	<path class="st22" d="M716.5,131.2l-13.1,12.7l8.9,11.3c0,0,17.8-14.6,16.9-17c-1-2.4-5.1-8.2-5.1-8.2"/>
	<path class="st21" d="M702.7,146.6l-7.6-1.4c0,0-5.8,5.3-6.1,6c-0.3,0.7-0.1,1.3,0.1,2.2c0.3,1,1.1,1.7,1.1,1.7s2.2,5.4,2.6,6.1
		c0.4,0.7,2.9,0.4,3.9,0.3c1-0.1,8.5-8.1,8.5-8.1L702.7,146.6z"/>
</g>
<g>
	<path class="st24" d="M832.3,170.6C832.3,170.7,832.2,170.7,832.3,170.6c-0.3,0.1-0.5,0.2-0.7,0c-0.4-0.5-0.9-0.3-1.4-0.3
		c-1.8-0.1-3.6-0.2-5.4-0.3c-0.3,0-0.6,0-0.9,0.1c-0.1,0-0.1,0-0.2,0.1c-0.1,0-0.1,0-0.2,0.1c-0.2,0-0.3,0.1-0.4,0.3
		c-0.1,0-0.1,0.1-0.2,0.1c-0.8,0.2-1.6,0.7-2.5,0.9c-1.6,0.4-3.1,0.6-4.7,0.5c-2.4-0.2-4.6-0.9-6.6-2c-0.8-0.4-1.5-1-2.4-1
		c-0.7,0-1.4-0.1-2.1-0.1c-1.2,0-2.3-0.2-3.5-0.2c-0.5,0-1.1,0-1.4-0.6c-0.1-0.2-0.3-0.2-0.5-0.4c-0.4-0.2-0.5-0.7-0.8-1
		c-0.3-0.6-0.7-1.1-1-1.6c0-0.1,0-0.1-0.1-0.2c0-0.1-0.1-0.2-0.1-0.3c0,0,0-0.1-0.1-0.1c0-0.1-0.1-0.1-0.1-0.2
		c-0.1-0.1-0.2-0.3,0-0.4c0,0,0.1-0.1,0.1-0.1c0.5,0.2,0.6,0.7,0.8,1c0.2,0.4,0.5,0.7,1,0.7c1.6,0,3.1,0.2,4.8,0.2
		c0-0.3-0.2-0.5-0.4-0.7c-1.4-1.9-2.4-4-3-6.3c-0.1-0.2-0.1-0.4-0.1-0.6c-0.2-1.1-0.1-1.2,1-1.2c2.2,0.1,4.4,0.2,6.6,0.3
		c1,0,1.4,0.3,1.4,1.4c0,2.2,0,4.3,0,6.5c0,0.9,0.1,0.9,0.9,1c1.2,0.1,2.4,0.1,3.5,0.2c0.7,0.1,0.8-0.1,0.9-0.8
		c0.1-1.7-0.2-3.5-0.1-5.2c0-5.1,0-10.3,0-15.4c0-0.2,0-0.5,0-0.7c0-0.3-0.2-0.5-0.5-0.5c-1.4-0.1-2.9-0.3-4.3-0.3
		c-0.4,0-0.5,0.2-0.5,0.5c0,0.6-0.1,1.1,0,1.7c0.2,1.7,0.1,3.5,0.1,5.2c0,0.8-0.3,1.1-1.1,1c-2.3-0.2-4.7-0.3-7-0.5
		c-0.9-0.1-1.1-0.3-0.9-1.2c0.6-2.5,1.7-4.8,3.4-6.8c0.1-0.1,0.2-0.2,0.3-0.4c0-0.4-0.3-0.3-0.5-0.3c-0.9,0-1.8-0.2-2.7-0.2
		c-0.4,0-0.7-0.1-0.7-0.5c-0.1-0.7-0.2-1.5,0.2-2.2c0.2-0.2,0.5-0.2,0.7-0.2c2,0.3,4.1,0.2,6.2,0.5c0.3,0,0.6,0.1,0.9-0.1
		c1.3-0.7,2.7-1.2,4.1-1.6c1.6-0.4,3.2-0.4,4.8-0.2c2.5,0.3,4.8,1.2,6.9,2.6c0.8,0.5,1.6,0.4,2.5,0.5c1.4,0.1,2.9,0.2,4.3,0.3
		c0.1,0,0.3,0.1,0.4,0.1c0.1,0,0.2,0,0.2,0c0.7,0.3,1,0.8,1.1,1.5c0,0.1,0,0.2,0,0.3c0.3,1.1,0.3,1.1-0.9,1.2
		c-1.8,0-3.5-0.2-5.3-0.3c-2.2-0.2-4.4-0.3-6.7-0.5c-0.5,0-0.9-0.1-1.4-0.1c-0.4,0-0.6,0.1-0.6,0.6c0.2,5.1,0,10.2,0.1,15.2
		c0,2,0.2,4,0.1,6c0,0.5,0.2,0.7,0.6,0.8c1.3,0.1,2.6,0.2,3.9,0.2c0.6,0,0.6-0.4,0.6-0.8c0-2,0-4,0-6c0-1.6,0-1.7,1.7-1.6
		c1.9,0.1,3.8,0.2,5.7,0.3c1.7,0.1,3.4,0.1,5.1,0.3c0.5,0,0.7-0.2,0.7-0.6c0.1-0.5,0-1,0-1.5c0-0.4,0-0.8,0.3-1.1c0.1,0,0.1,0,0.2,0
		c0.2,0.2,0.2,0.4,0.2,0.6c0,0.9,0.1,1.9-0.1,2.8c-0.2,1.3-0.3,2.6-0.9,3.8c-0.2,0.2-0.3,0.4,0.1,0.4c0.5,0,1.1,0,1.6,0
		c-0.2,0.4-0.6,0.3-0.9,0.3c-0.7-0.1-1.1,0.2-1.3,0.8c-0.3,0.9-0.9,1.7-1.3,2.5c-0.5,0.9-1,1.8-0.9,2.9c0,0.2,0,0.4-0.2,0.5
		c-0.2-0.5,0-1-0.1-1.4c-0.3,0-0.3,0.2-0.4,0.4C832.3,169.8,832.5,170.3,832.3,170.6z"/>
	<path class="st25" d="M785.8,153.8c0.1,0,0.2,0.1,0.1,0.1c-8,3.8-16.1,7.2-24.8,9.2c-4.1,1-8.2,1.6-12.4,1.8
		c-4.7,0.2-9.3-0.2-13.8-1.5c-2.9-0.9-5.7-2.2-8.1-4.1c-0.4-0.3-0.8-0.7-1.2-1.1c11.9,2.8,23.2,1.5,34.1-3.8
		c0.1-0.2,0.3-0.3,0.6-0.3c0.1,0,0.3,0,0.4,0c3.5,0.1,7-0.1,10.5-0.2c3.4,0,6.9-0.1,10.3-0.1c0.8,0,1.7-0.1,2.5-0.1
		C784.7,153.6,785.3,153.6,785.8,153.8z"/>
	<path class="st25" d="M804.2,143.1c-0.9,0.8-1.5,1.8-2.1,2.8c-0.8,1.4-1.3,3-1.7,4.5c-0.1,0.6-0.1,0.6,0.5,0.7
		c2.5,0.2,5,0.3,7.5,0.5c0.1,0,0.2,0,0.3,0c0.3,0,0.4-0.1,0.4-0.4c0-0.2,0-0.4,0-0.6c0-2.2,0-4.5,0-6.7c0-0.1,0-0.3,0-0.4
		c0-0.4,0.1-0.5,0.5-0.4c1.3,0.1,2.6,0.2,3.9,0.3c0.3,0,0.6,0,0.9,0.1c0.3,0,0.4,0.2,0.4,0.5c0,0.4,0,0.7,0,1.1c0,4.2,0,8.3,0,12.5
		c0,2.7,0,5.5,0.1,8.2c0,0.1,0,0.2,0,0.3c0,0.6,0,0.6-0.6,0.6c-1,0-2-0.1-3-0.2c-0.5,0-1-0.1-1.5-0.1c-0.6,0-0.6,0-0.6-0.6
		c0-2.3,0-4.5,0-6.8c0-1.6,0-1.3-1.3-1.3c-2.3-0.1-4.5-0.2-6.8-0.4c-0.7,0-0.6,0.1-0.5,0.6c0.6,2.8,1.8,5.3,3.5,7.6
		c0.1,0.1,0.1,0.2,0.2,0.3c0.1,0.1,0.2,0.2,0.1,0.4c-0.1,0.1-0.2,0.1-0.3,0.1c-1.6-0.2-3.3-0.2-4.9-0.3c-0.5,0-0.8-0.2-1-0.7
		c-0.2-0.4-0.4-0.9-0.7-1.3c0-0.2-0.1-0.3-0.2-0.4c-0.6-0.8-0.8-1.8-1.1-2.7c-0.5-1.6-0.8-3.3-0.9-5c0-0.3,0-0.5,0.2-0.8
		c0.1-0.2,0.1-0.4,0-0.5c-0.4-0.8-0.2-1.7-0.2-2.6c0.2-1,0-2,0.4-2.9c0.1-0.2,0.1-0.3,0.2-0.5c0.1-0.3,0.3-0.5,0.3-0.8
		c0-0.1,0-0.1,0-0.2c0-0.1,0.1-0.3,0.1-0.4c0.1-0.3,0.1-0.5,0.4-0.7c0.2-0.1,0.2-0.3,0.2-0.5c0-0.2,0-0.3,0.1-0.4
		c0.3-0.8,0.7-1.5,1.1-2.2c0.5-0.9,1.4-1.2,2.4-0.8c0.2,0.1,0.4,0.2,0.6,0.2c1-0.1,2.1,0.2,3.1,0.1
		C804,142.6,804.3,142.6,804.2,143.1z"/>
	<path class="st26" d="M785.8,153.8c-0.3,0-0.7,0-1,0c-3.4,0.2-6.8,0-10.2,0.2c-2.6,0.1-5.2,0-7.7,0.1c-2.2,0.1-4.3,0.1-6.5,0.1
		c-0.2,0-0.4,0-0.7,0.1c-0.1-0.3-0.4-0.3-0.6-0.4c-2.7-1.3-5.5-2.2-8.4-2.9c-2.8-0.7-5.7-1.1-8.6-1.3c-5.3-0.3-10.5,0.3-15.6,1.6
		c-0.1,0-0.2,0-0.2-0.2c1.3-1.2,2.7-2.2,4.3-3c3.2-1.7,6.6-2.8,10.2-3.4c3.1-0.5,6.2-0.7,9.3-0.6c4.3,0.1,8.5,0.7,12.6,1.6
		c7.9,1.7,15.5,4.5,22.9,7.9C785.7,153.7,785.8,153.8,785.8,153.8z"/>
	<path class="st25" d="M836.4,155.8c-0.1,1,0,2-0.2,3c-0.1,0.5-0.1,0.5-0.6,0.5c-2.4-0.1-4.9-0.3-7.3-0.4c-1.6-0.1-3.2-0.2-4.8-0.3
		c-0.5,0-0.5,0-0.5,0.4c0,2.4,0,4.7,0,7.1c0,0.2,0,0.3,0,0.5c0,0.5,0,0.5-0.5,0.5c-1.5-0.1-3-0.2-4.5-0.2c-0.5,0-0.5,0-0.5-0.5
		c0-4.8-0.1-9.5-0.1-14.3c0-2.5,0-4.9-0.1-7.4c0-0.8,0-0.8,0.8-0.8c4.2,0.3,8.4,0.6,12.6,0.9c0.3,0,0.5,0.1,0.8,0
		c0.3,0.1,0.6,0.1,1,0c0.3-0.1,0.7,0,0.9,0.3c0.5,0.8,0.9,1.5,1.2,2.4c0,0.1,0,0.2,0,0.3c-0.1,0.2,0.1,0.3,0.2,0.5
		c0.2,0.2,0.3,0.5,0.4,0.7c0.4,1.2,0.7,2.4,1,3.7c0.2,0.7,0.2,1.4,0.3,2.1c0,0.2,0,0.4-0.1,0.6C836.3,155.4,836.3,155.6,836.4,155.8
		z"/>
	<path class="st25" d="M794.4,133.2c-1.7-0.1-3.4-0.4-5.2-0.7c-4.2-0.7-8.3-1.8-12.3-3.5c-4.4-1.8-8.5-4.2-11.9-7.5
		c-4.3-4.1-7.3-9-8.7-14.7c-0.3-1.4-0.6-2.7-0.6-4.2c0-0.1-0.1-0.3,0.1-0.5c0.2,0.1,0.3,0.4,0.4,0.6c2.9,4.5,6.3,8.5,10.5,11.8
		c4.2,3.4,8.9,5.9,14.1,7.3c1,0.3,1.9,0.5,2.9,0.6c0.4,0.2,0.8,0.5,1.1,0.8c1.1,1,2.1,2.1,3.2,3.1c2.2,2.1,4.4,4.2,6.6,6.3
		c0.1,0.1,0.3,0.3,0.2,0.4C794.8,133.4,794.6,133.3,794.4,133.2z"/>
	<path class="st26" d="M794.4,133.2c0.2,0,0.3,0,0.5-0.1c-0.1-0.3-0.5-0.4-0.7-0.6c-1.7-1.8-3.6-3.5-5.4-5.2c-1.4-1.3-2.8-2.6-4.1-4
		c-0.3-0.3-0.7-0.4-0.9-0.8c-0.4-3-1.5-5.8-2.8-8.5c-2.3-4.5-5.4-8.3-9.1-11.6c-2.6-2.3-5.4-4.3-8.3-6.1c-0.2-0.1-0.4-0.2-0.5-0.4
		c1.9,0.1,3.8,0.4,5.7,0.9c4.5,1.2,8.6,3.2,12.3,6.2c3.3,2.7,6,5.9,8.1,9.5c2.6,4.5,4.1,9.3,5.1,14.3c0.4,2.1,0.7,4.2,0.9,6.3
		c0,0.1,0,0.2,0,0.3C794.8,133.4,794.6,133.4,794.4,133.2z"/>
	<path class="st25" d="M796.5,178.4c-0.9,3.1-2,6.2-3.2,9.3c-2.2,5.5-4.7,10.8-7.9,15.8c-2.4,3.8-5.2,7.3-8.6,10.4
		c-2.9,2.6-6,4.8-9.7,6.1c-1.5,0.6-3.1,0.9-4.7,1.1c-0.3,0-0.6,0-0.9,0c-0.1-0.2,0.1-0.2,0.2-0.3c9.1-5.9,15.1-14.2,18.4-24.4
		c0-0.1,0.1-0.2,0.1-0.3c0-0.4,0.2-0.7,0.5-1c2.3-2.4,4.5-4.9,6.7-7.3c1.1-1.2,2.3-2.5,3.4-3.7c1.6-1.7,3.2-3.5,4.8-5.3
		c0.2-0.2,0.4-0.4,0.7-0.6l0,0C796.4,178.2,796.5,178.3,796.5,178.4z"/>
	<path class="st26" d="M796.3,178.3c-0.3,0.3-0.5,0.7-0.8,1c-1.2,1.3-2.4,2.6-3.6,3.9c-1.4,1.6-2.9,3.2-4.4,4.8
		c-0.9,0.9-1.7,1.9-2.6,2.9c-1.4,1.6-2.8,3.2-4.3,4.7c-0.2,0.2-0.1,0.5-0.3,0.7c0-0.1,0-0.3-0.2-0.2c-0.3,0.1-0.5,0.2-0.8,0.3
		c-4.3,1.8-8.1,4.2-11.6,7.2c-4.2,3.6-7.5,7.8-10.1,12.6c-0.1,0.1-0.1,0.3-0.3,0.3c-0.1-0.9,0-1.8,0.2-2.7c0.6-3.9,2.3-7.5,4.4-10.8
		c2.1-3.2,4.6-6,7.4-8.6c4.9-4.5,10.5-8.1,16.4-11.2c3.3-1.7,6.6-3.3,10-4.7C795.9,178.4,796.1,178.3,796.3,178.3z"/>
	<path class="st25" d="M820.6,185.2c3.6,6.9,6.6,14,8.3,21.6c0.7,3.2,1.1,6.4,1.1,9.7c0,3.3-0.5,6.6-1.7,9.7
		c-0.7,1.8-1.6,3.5-2.9,4.9c-0.3,0-0.2-0.1-0.1-0.3c0.4-1.9,0.7-3.8,0.8-5.7c0.1-1.8,0.1-3.6-0.1-5.4c-0.3-3.4-1.1-6.8-2.3-10
		c-0.6-1.6-1.3-3.1-2.1-4.6c-0.3-0.2-0.3-0.5-0.3-0.8c0-2.5-0.2-5-0.3-7.5c-0.1-3.1-0.3-6.2-0.4-9.3c0-0.6-0.2-1.3,0-1.9
		C820.4,185.5,820.4,185.2,820.6,185.2z"/>
	<path class="st26" d="M820.6,185.2c-0.3,0.6-0.1,1.1-0.1,1.7c0,0.2,0.1,0.3,0.1,0.5c-0.1,1.7,0.1,3.4,0.2,5.1c0.1,1.3,0,2.7,0.2,4
		c0,0.1,0,0.1,0,0.2c-0.1,1.7,0.1,3.5,0.2,5.2c0,1,0.1,1.9,0.1,2.9c0,0.2,0.1,0.3,0.1,0.5c-0.2,0.1-0.3,0.3-0.3,0.5
		c-1.1,2.5-1.8,5.1-2.3,7.8c-0.4,2.5-0.6,5.1-0.5,7.6c0.1,3.1,0.6,6.1,1.4,9.1c0,0.1,0,0.2,0.1,0.3c0,0.1,0.1,0.3-0.1,0.3
		c-0.9-0.8-1.5-1.8-2.2-2.9c-1.6-2.7-2.5-5.6-3.1-8.6c-0.5-2.8-0.6-5.7-0.5-8.5c0.1-2.9,0.5-5.8,1.1-8.6c1.2-5.9,3.1-11.5,5.4-17
		c0-0.1,0.1-0.2,0.2-0.3C820.7,185,820.6,185.1,820.6,185.2z"/>
	<path class="st25" d="M815.6,126c-0.1,0.1-0.1,0-0.2,0c-3.4-4.1-6.4-8.4-8.3-13.4c-1.4-3.6-2.2-7.3-1.9-11.2
		c0.3-4.2,1.8-8,4.6-11.2c0.1-0.1,0.2-0.2,0.3-0.3c0.3,0,0.2,0.1,0.2,0.3c-0.2,1.4-0.5,2.8-0.6,4.2c-0.1,1.7-0.2,3.5-0.1,5.2
		c0.2,2.9,0.8,5.8,1.9,8.6c0.8,2.1,1.8,4.1,3.1,5.9c0.2,0.2,0.3,0.4,0.5,0.6c0.3,0.5,0.3,1.1,0.3,1.7c0.1,2.9,0.2,5.8,0.4,8.8
		C815.8,125.5,815.7,125.8,815.6,126z"/>
	<path class="st26" d="M815.6,126c-0.2-1.3-0.1-2.5-0.2-3.8c-0.1-1,0-1.9-0.1-2.9c-0.1-1.1-0.1-2.2-0.1-3.3c0-0.4-0.2-0.9-0.1-1.3
		c0.8-0.8,1.3-1.7,1.8-2.7c1.2-2.4,1.9-5,2.2-7.7c0.5-4.4,0-8.8-1.2-13.1c-0.1-0.2-0.2-0.4-0.1-0.6c0.2,0,0.3,0.2,0.4,0.3
		c3.2,3.8,5.2,8.2,5.9,13.2c0.5,4.1-0.2,8.1-1.8,11.9c-1.4,3.3-3.3,6.2-5.6,9C816.2,125.3,816,125.7,815.6,126z"/>
	<path class="st26" d="M848.8,185.4c-0.2,0.1-0.1,0.3,0,0.5c0.5,2.5,1.5,4.9,2.8,7c2.3,3.8,5.4,6.7,9.1,8.9c0.2,0.1,0.4,0.2,0.5,0.4
		c-0.5,0.1-1,0-1.4,0c-3.1-0.4-5.9-1.5-8.5-3.2c-3.5-2.3-6.2-5.5-8.2-9.2c-1.9-3.5-3.2-7.2-4.1-11.1c-0.3-1.3-0.5-2.6-0.8-3.9
		c0-0.1-0.1-0.4,0.2-0.2c2.6,2.5,5,5.2,7.6,7.7c0.9,0.8,1.7,1.7,2.5,2.6C848.6,185.1,848.8,185.2,848.8,185.4z"/>
	<path class="st25" d="M803.7,172.3c-0.1-0.3-0.3-0.4-0.5-0.5c-1.1-0.7-1.9-1.6-2.7-2.6c-0.2-0.3-0.1-0.5,0.3-0.5c0.4,0,0.9,0,1.3,0
		c1.7,0.1,3.4,0.2,5.1,0.3c0.5,0,0.9,0.2,1.2,0.4c2,1.4,4.2,2.1,6.6,2.4c2.3,0.3,4.5,0,6.6-0.7c0.5-0.2,1.1-0.4,1.6-0.7
		c0.5-0.3,1-0.6,1.7-0.5c2,0.1,4,0.2,6,0.3c0.3,0,0.8,0,0.3,0.6l0,0c-0.1,0-0.1,0.1-0.1,0.2l0,0c-0.4,0.6-1,1-1.4,1.6
		c-0.9,0.8-1.9,1.6-2.9,2.2c-0.4,0.1-0.7,0.4-1.1,0.6c-0.1,0-0.1,0.1-0.2,0.1c-0.2,0.1-0.4,0.2-0.6,0.3c-0.7,0.3-1.4,0.7-2.2,0.7
		c-0.2,0.1-0.4,0-0.6,0.2c-0.1,0.2-0.4,0.2-0.6,0.3c-2.9,0.6-5.8,0.7-8.7,0.1c-0.3-0.1-0.6-0.1-0.8-0.3c-0.2-0.1-0.4-0.3-0.7-0.2
		c-1,0-1.9-0.6-2.8-0.9c-0.2-0.1-0.3-0.2-0.5-0.2c-0.6-0.3-1.1-0.6-1.7-0.9c-0.3-0.3-0.7-0.5-1.1-0.8c0,0-0.1-0.1-0.1-0.1
		c-0.1-0.1-0.3-0.2-0.4-0.3c-0.3-0.2-0.5-0.4-0.8-0.6C803.7,172.5,803.7,172.4,803.7,172.3z"/>
	<path class="st25" d="M830.7,142c-0.6-0.2-1.3-0.1-1.9-0.2c-1.4-0.1-2.8-0.2-4.1-0.3c-0.3,0-0.6-0.1-0.9-0.3
		c-1.6-1.1-3.3-1.9-5.2-2.4c-2.1-0.5-4.2-0.6-6.4-0.3c-0.1,0-0.1,0.1-0.2,0.1c-1.3,0.3-2.6,0.7-3.7,1.3c-0.7,0.4-1.5,0.3-2.2,0.2
		c-1.8-0.1-3.6-0.3-5.4-0.4c-0.4,0-0.6-0.3-0.3-0.6c0.4-0.6,0.9-1.2,1.6-1.4c0.2-0.1,0.4-0.2,0.5-0.4c0.6-0.8,1.6-1.3,2.4-1.8
		c1.7-1,3.6-1.7,5.6-2.1c0.2-0.1,0.5-0.1,0.7,0c0.2,0,0.5,0,0.7-0.1c0.3-0.2,0.7-0.3,1.1-0.3c2.3-0.1,4.6,0.1,6.8,0.7
		c0.1,0,0.3,0.1,0.4,0.1c0.6,0.3,1.3,0.3,1.8,0.8c0.2,0.1,0.4,0.3,0.6,0.3c0.3-0.1,0.6,0.1,0.8,0.2c2.1,1.1,3.9,2.4,5.6,4
		c0,0.1,0,0.1,0.1,0.2c0.1,0.2,0.2,0.4,0.5,0.5c0.7,0.3,1.1,1.1,1.6,1.6c0.2,0.2,0.1,0.4-0.1,0.5c0,0-0.1,0-0.1,0
		C830.9,142,830.8,142,830.7,142z"/>
	<path class="st25" d="M848.8,185.4c-0.9-0.8-1.8-1.7-2.6-2.6c-0.2-0.2-0.4-0.5-0.6-0.7c-1.1-1.1-2.2-2.1-3.2-3.3
		c-1.2-1.3-2.5-2.6-3.7-3.8c-0.1-0.1-0.3-0.1-0.1-0.3c4,1.3,8,2.8,11.7,4.7c2.6,1.3,5,2.8,7.3,4.7c2.3,1.9,4.4,3.9,5.9,6.5
		c1.2,2,2,4.1,2.1,6.5c0,0.6,0,1.1-0.1,1.7c-0.2,0-0.2-0.1-0.3-0.2c-3.6-6.6-9.1-10.9-16.2-13.1
		C848.9,185.4,848.8,185.4,848.8,185.4z"/>
	<path class="st25" d="M786.1,143.9c-3.7,0.5-7.4,0.7-11.1,0.5c-4.2-0.2-8.4-0.8-12.4-2.2c-3-1.1-5.8-2.7-8.1-5
		c-1-1-1.8-2.1-2.5-3.4c-0.1-0.3-0.3-0.5-0.3-0.8c0.2-0.1,0.3,0,0.4,0.1c4.8,3.2,10.1,5.3,15.9,6.2c2.4,0.4,4.8,0.5,7.3,0.4
		c0.2,0,0.5,0,0.7,0c0.2-0.1,0.4,0.1,0.5-0.1l0,0c0.7,0,1.2,0.3,1.8,0.6c2.6,1,5.2,2,7.7,3.1c0.3,0.1,0.5,0.2,0.7,0.5
		C786.5,143.9,786.3,143.8,786.1,143.9z"/>
	<path class="st25" d="M752.5,185.2c5.3-0.8,10.1-3,14.3-6.3c1.4-1.1,2.8-2.3,3.9-3.7c0.2-0.4,0.5-0.5,0.9-0.6
		c4.3-1.8,8.5-3.6,12.7-5.4c0.3-0.1,0.6-0.3,1-0.3c0,0,0.1,0,0.1,0.1l0,0c-0.1,0.1-0.2,0.2-0.3,0.3c0,0.1-0.1,0.1-0.1,0.1
		c-2.6,2.9-5.3,5.6-8.3,8c-2.7,2.2-5.6,4.3-8.8,5.8c-2.5,1.3-5.1,2.2-7.9,2.7c-2.4,0.4-4.7,0.4-7.1-0.3c-0.1,0-0.2-0.1-0.4-0.1
		C752.6,185.4,752.5,185.4,752.5,185.2z"/>
	<path class="st26" d="M786.1,143.9c0.1-0.2,0.3-0.1,0.5-0.2c-0.8-0.3-1.6-0.7-2.4-1c-2.4-1-4.9-1.9-7.3-2.9
		c-0.1-0.1-0.3-0.1-0.4-0.2c-0.9-1.6-2.1-2.9-3.5-4c-2.7-2.3-5.7-3.8-9-5c-2.2-0.8-4.4-1.4-6.6-1.9c-0.2,0-0.4-0.1-0.6-0.1
		c-0.1-0.2-0.4,0.1-0.4-0.2c3.2-0.5,6.4-0.4,9.6,0.1c3.3,0.5,6.4,1.5,9.3,3c4.3,2.3,7.6,5.6,10.1,9.8c0.5,0.8,1,1.7,1.4,2.6
		C786.6,143.9,786.4,143.9,786.1,143.9z"/>
	<path class="st26" d="M785.3,168.9c-1.1,0.6-2.2,1-3.3,1.5c-1.7,0.7-3.5,1.5-5.2,2.2c-1.6,0.7-3.3,1.4-4.9,2.1
		c-0.4,0.2-0.8,0.4-1.1,0.5c-0.3-0.2-0.6-0.1-0.9-0.1c-3.6-0.1-7,0.5-10.4,1.7c-2.9,1-5.5,2.4-8,4.3c-0.1,0.1-0.2,0.1-0.3,0.2
		c0-0.3,0.1-0.5,0.2-0.7c1.1-1.9,2.5-3.4,4.2-4.8c2.9-2.3,6.1-3.8,9.6-4.8c3-0.9,6.1-1.5,9.2-1.8c3.5-0.4,6.9-0.4,10.4-0.3
		C785,168.8,785.2,168.8,785.3,168.9z"/>
	<path class="st25" d="M807.6,187c0.4,3.5,0.5,7.1,0.4,10.6c-0.2,4.3-0.8,8.5-2.2,12.6c-1,2.7-2.4,5.3-4.4,7.4
		c-0.8,0.8-1.6,1.5-2.6,2.1c-0.2,0.1-0.4,0.3-0.7,0.4c0-0.2,0.1-0.4,0.2-0.5c2.2-3.4,3.6-7.1,4.2-11c0.4-2.5,0.5-5,0.2-7.5
		c-0.1-0.1,0-0.3-0.1-0.4l0,0c-0.1-0.3,0-0.5,0.1-0.8c1.4-4.2,2.9-8.4,4.3-12.5c0.1-0.1,0.1-0.3,0.2-0.4c0.1-0.1,0.1-0.3,0.3-0.3
		C807.7,186.6,807.5,186.9,807.6,187z"/>
	<path class="st25" d="M835.2,135.4c-0.2-0.1-0.1-0.3-0.1-0.4c0.6-5.1,1.9-10.1,4.6-14.5c1.9-3,4.3-5.4,7.4-7.1c2-1.1,4.1-1.7,6.3-2
		c0.3,0,0.5,0,0.9,0c-0.2,0.3-0.5,0.4-0.7,0.5c-3.3,2.1-6.1,4.7-8.3,8c-1.7,2.5-3,5.3-3.6,8.3c0,0.1,0,0.3,0,0.4
		c0,0.4-0.3,0.5-0.5,0.8c-1.1,1.1-2.1,2.2-3.2,3.2c-0.8,0.7-1.4,1.6-2.1,2.3C835.7,135,835.5,135.2,835.2,135.4z"/>
	<path class="st26" d="M835.2,135.4c0.1-0.1,0.2-0.2,0.2-0.3c1.8-1.9,3.7-3.8,5.5-5.7c0.3-0.3,0.5-0.6,0.8-0.9
		c0.8,0,1.5-0.2,2.3-0.5c2.9-0.9,5.4-2.4,7.7-4.4c2.4-2.1,4.4-4.6,6.1-7.3c0.1-0.2,0.2-0.4,0.4-0.5c0,0.7-0.1,1.3-0.3,2
		c-0.9,4.2-2.8,7.8-5.9,10.8c-2.6,2.4-5.6,4.1-8.9,5.2c-2.5,0.8-5,1.3-7.6,1.5C835.5,135.4,835.4,135.4,835.2,135.4z"/>
	<path class="st26" d="M807.6,187c-0.1-0.1-0.1-0.2-0.2-0.3c-0.1,0-0.2,0.2-0.2,0.3c-0.8,2.3-1.5,4.5-2.3,6.8
		c-0.8,2.3-1.6,4.6-2.4,6.8c-1.2,1.1-2.2,2.4-3.2,3.7c-2.6,3.7-4.2,7.8-4.8,12.3c-0.1,0.5-0.1,1.1-0.2,1.6c-0.2-0.1-0.2-0.3-0.3-0.4
		c-0.5-1.2-0.7-2.5-0.8-3.8c-0.2-3.1,0.4-6,1.4-8.9c1.2-3.5,3-6.7,5.2-9.8c2-2.9,4.3-5.7,6.8-8.2c0.3-0.3,0.5-0.6,0.8-0.8
		C807.7,186.5,807.7,186.7,807.6,187z"/>
	<path class="st25" d="M804.2,125.6c-4.6-2.4-8.7-5.3-11.8-9.6c-1.9-2.5-3.1-5.4-3.5-8.5c-0.3-2.3-0.2-4.6,0.5-6.8
		c0-0.1,0.1-0.3,0.2-0.5c0.2,0.4,0.2,0.9,0.3,1.3c1,4.2,2.7,8,5.4,11.3c1.5,1.8,3.2,3.3,5.2,4.5c0.3,0,0.4,0.2,0.5,0.5
		c1.1,2.4,2.2,4.7,3.3,7.1C804.3,125.1,804.6,125.4,804.2,125.6z"/>
	<path class="st25" d="M831.1,183.1c1.8,1.3,3.6,2.7,5.2,4.1c2.3,2,4.4,4.3,6.2,6.8c1.5,2.1,2.6,4.4,3.2,6.9
		c0.5,2.3,0.5,4.6-0.3,6.9c-0.1,0.3-0.3,0.7-0.5,1c-0.2-0.8-0.3-1.6-0.4-2.3c-1.2-5.1-4.1-8.9-8.2-11.9c-0.1-0.1-0.2-0.1-0.2-0.1
		c-0.4-0.2-0.4-0.6-0.6-0.9c-1.5-3.3-3-6.5-4.4-9.8c-0.1-0.2-0.2-0.4-0.1-0.7C831,183,831.1,183,831.1,183.1z"/>
	<path class="st26" d="M804.2,125.6c0.2-0.1,0.1-0.3,0-0.4c-0.4-0.9-0.8-1.8-1.2-2.7c-0.7-1.6-1.5-3.2-2.2-4.8
		c-0.1-0.2-0.2-0.2-0.3-0.4c0.2-0.1,0.2-0.2,0.3-0.4c0.3-1.5,0.3-3,0.2-4.5c-0.2-2.8-1-5.5-2.2-8c-0.9-2-2.1-3.8-3.3-5.5
		c-0.1-0.1-0.2-0.3-0.3-0.4c0,0,0-0.1,0-0.2c0.6,0.2,1.1,0.5,1.6,0.9c4.8,3.1,7.8,7.4,8.9,12.9c0.5,2.5,0.5,5,0.2,7.5
		c-0.2,1.9-0.6,3.7-1.1,5.6c0,0.1-0.1,0.3-0.1,0.4C804.4,125.8,804.3,125.7,804.2,125.6z"/>
	<path class="st26" d="M830.9,183.1c0.4,0.9,0.7,1.8,1.1,2.6c1.2,2.7,2.5,5.4,3.7,8.2c0.1,0.2,0.2,0.4,0.3,0.6
		c-0.2,1.2-0.3,2.4-0.2,3.6c0.1,1.7,0.4,3.4,0.9,5c0.8,2.5,2.1,4.7,3.8,6.6c0.1,0.1,0.2,0.2,0.3,0.4c-0.3,0-0.5-0.1-0.6-0.1
		c-1.9-0.8-3.5-2-4.8-3.5c-2.2-2.5-3.4-5.4-4.2-8.6c-0.5-2.2-0.8-4.5-0.9-6.7c-0.1-2.7,0.1-5.4,0.3-8.1c0-0.1,0-0.2,0.1-0.2
		C830.9,182.9,830.9,183,830.9,183.1z"/>
	<path class="st25" d="M844.7,154.9c3.8-2.6,7.8-4.6,12.3-5.4c4.7-0.9,9.1-0.2,13.2,2.5c0.8,0.5,1.6,1.2,2.3,1.9
		c0,0.1,0,0.2-0.1,0.2c-2-0.6-4.1-1-6.2-1.2c-4.5-0.3-8.9,0.4-12.9,2.7c-0.4,0.3-0.9,0.2-1.4,0.2c-2.1-0.2-4.2-0.2-6.3-0.4
		C845.2,155.3,844.8,155.5,844.7,154.9z"/>
	<path class="st26" d="M844.7,154.9c0.1,0.2,0.2,0.2,0.4,0.2c1.2-0.1,2.3,0.1,3.5,0.2c1.1,0.1,2.1,0,3.2,0.2c0.5,0.1,1,0,1.5,0
		c0,0.3,0.2,0.4,0.4,0.5c1.9,1.4,4,2.4,6.2,3c3,0.8,6.1,1,9.2,0.7c0.6-0.1,1.2-0.1,1.9-0.2c0.2,0,0.4-0.2,0.4,0.2
		c-2,1.4-4.1,2.3-6.4,2.8c-4.5,1-8.8,0.2-12.8-1.8c-2.8-1.4-5.2-3.3-7.4-5.4C844.6,155.2,844.4,155,844.7,154.9z"/>
	<path class="st25" d="M827.2,126.8c-0.6-1.6-1-3.2-1.3-4.9c-0.3-1.5-0.4-3.1-0.4-4.6c0.1-2.9,0.7-5.6,2.3-8.1
		c1.2-1.9,2.8-3.5,4.9-4.6c0,0.3-0.2,0.4-0.3,0.6c-1.5,2.5-2.6,5.1-3,7.9c-0.4,2.3-0.4,4.5,0.2,6.8c0,0.1,0,0.1,0,0.2
		c0.2,0.3,0.2,0.5,0.1,0.8c-0.6,1.8-1.2,3.5-1.8,5.3C827.6,126.4,827.6,126.8,827.2,126.8z"/>
	<path class="st26" d="M827.2,126.8c0.2-0.2,0.3-0.5,0.4-0.8c0.6-1.8,1.3-3.6,1.9-5.4c0.1-0.2,0-0.4,0-0.6c0.2,0.2,0.3,0.1,0.5,0
		c0.8-0.6,1.6-1.3,2.2-2.1c2.3-2.7,3.5-5.8,4.2-9.2c0.1-0.7,0.2-1.4,0.3-2.1c0.3,0,0.2,0.2,0.3,0.4c1.2,4.2,0.9,8.2-1.3,12
		c-1.7,3.1-4.3,5.4-7.2,7.2c-0.4,0.2-0.7,0.4-1.1,0.7C827.4,126.9,827.3,127,827.2,126.8z"/>
	<path class="st25" d="M844.6,166.1c2.7-0.6,5.4-0.9,8.1-0.7c2.8,0.2,5.5,0.9,8,2.4c2.1,1.3,3.8,3.1,4.9,5.4
		c0.1,0.2,0.2,0.4,0.2,0.7c-0.3,0-0.4-0.2-0.6-0.3c-2.8-2.1-5.8-3.6-9.3-4.3c-1.6-0.3-3.2-0.3-4.9-0.2c-0.4,0.1-0.7,0.1-1-0.1
		c-1.6-0.9-3.3-1.6-5-2.4C844.8,166.6,844.5,166.6,844.6,166.1z"/>
	<path class="st26" d="M844.6,166.1c0,0.2,0.2,0.3,0.4,0.4c1.7,0.8,3.5,1.7,5.2,2.5c0.3,0.1,0.6,0.1,0.8,0.2
		c-0.2,0.1-0.3,0.2-0.2,0.5c0.5,0.9,1.1,1.7,1.8,2.5c1.9,2,4.1,3.4,6.7,4.5c1.3,0.5,2.6,0.9,4,1.3c-0.1,0.2-0.2,0.2-0.4,0.2
		c-5.3,0.9-9.9-0.6-13.7-4.3c-2.1-2.1-3.6-4.6-4.8-7.3C844.4,166.4,844.1,166.1,844.6,166.1z"/>
	<path class="st25" d="M842.2,144.6c2.1-3.6,4.7-6.8,8.5-8.9c2.4-1.4,5.1-2,7.9-1.8c1,0.1,2.1,0.3,3,0.7c-0.1,0.2-0.3,0.2-0.5,0.2
		c-3.8,0.6-7.3,2-10.2,4.6c-0.9,0.8-1.7,1.7-2.4,2.7c-0.1,0.3-0.4,0.4-0.6,0.5c-1.7,0.7-3.4,1.3-5,2
		C842.6,144.7,842.3,145,842.2,144.6z"/>
	<path class="st26" d="M842.2,144.6c0.2,0.2,0.3,0,0.5,0c1.6-0.6,3.1-1.2,4.6-1.8c0.4-0.2,0.8-0.3,1.1-0.5c0.1,0.2,0.4,0.2,0.6,0.3
		c2,0.4,4,0.3,6-0.1c2.6-0.5,4.9-1.6,7.1-3.1c0.2-0.1,0.3-0.2,0.5-0.3c0.1,0.2-0.1,0.3-0.1,0.5c-2.3,3.6-5.6,5.8-9.9,6.6
		c-2.9,0.5-5.8,0.2-8.7-0.6c-0.6-0.2-1.2-0.4-1.8-0.6C842.1,144.8,842,144.8,842.2,144.6z"/>
	<path class="st27" d="M826.7,174.5c1-0.6,2-1.4,2.9-2.1c0.4-0.2,0.6-0.5,0.9-0.8c0.2-0.2,0.3-0.4,0.6-0.4c0.3,0,0.5,0,0.8,0
		c0.4,0,0.5,0,0.5,0.4c0,1,0,2.1,0,3.1c0,0.6,0,1.2,0,1.7c0,0.3-0.1,0.5-0.3,0.7c-0.7,0.5-1.3,1-2,1.4c-0.2,0.1-0.5,0.2-0.8,0.2
		c-2,0.1-4,0.3-5.9,0.4c-0.1,0-0.3,0-0.4,0c-0.2,0-0.2-0.2-0.2-0.3c0-0.7,0-1.4,0-2.1c0-0.3,0.1-0.5,0.4-0.6
		c0.6-0.2,1.2-0.4,1.8-0.7c0.2-0.1,0.4-0.2,0.5-0.3l0,0C825.9,175.1,826.3,174.8,826.7,174.5z"/>
	<path class="st28" d="M795.1,155c0.1,2.3,0.5,4.6,1.3,6.8c0.2,0.5,0.5,1,0.6,1.6c-1.6,0-3.2,0-4.8,0c-0.5,0-0.6,0-0.8-0.5
		c-0.8-2.1-1.3-4.3-1.6-6.6c0-0.3-0.1-0.7-0.1-1c0-0.3,0.1-0.4,0.4-0.4c0.8,0,1.7,0,2.5,0.1C793.5,155,794.3,155,795.1,155z"/>
	<path class="st29" d="M811.3,133.5c-1,0.3-2,0.5-3,0.8c-1.9,0.6-3.6,1.6-5.2,2.7c-0.2,0.1-0.4,0.2-0.6,0.4c-0.7-0.1-1.4-0.1-2-0.2
		c-0.3,0-0.5-0.1-0.5-0.4c0-1.3,0-2.6,0-3.9c0-0.1,0-0.2,0.1-0.2c0.2,0.2,0.1,0.5,0.2,0.8c0.1,0.6,0.2,0.7,0.7,0.5
		c1.3-0.4,2.5-0.8,3.8-1.3c1.7-0.7,3.5-1.3,5.3-1.9c0.3-0.1,0.6-0.2,0.8-0.5c0.3-0.1,0.4,0.1,0.4,0.4
		C811.3,131.6,811.3,132.6,811.3,133.5z"/>
	<path class="st30" d="M833.5,140.3c0.6,0,1.2,0,1.9,0.1c0.4,0,0.6,0.2,0.8,0.5c1.1,1.5,2,3.1,2.8,4.9c0.3,0.6,0.5,1.2,0.7,1.7
		c0,0.1,0.1,0.2,0,0.5c-1.5-0.1-3.1-0.2-4.6-0.3c-0.3,0-0.5-0.2-0.6-0.4c-0.3-0.6-0.6-1.3-0.9-1.9c-0.1-0.2-0.2-0.4-0.4-0.5
		c-0.2-0.1-0.2-0.3-0.2-0.4c0.2-1.2,0-2.4,0.1-3.7C833,140.3,833.2,140.2,833.5,140.3z"/>
	<path class="st31" d="M832.9,170.6c0-0.2,0-0.4,0-0.7c-0.2-1.1,0.4-2,0.9-2.8c0.2-0.3,0.4-0.4,0.7-0.5c1.7-0.7,3.5-1.3,5.2-1.9
		c0.2-0.1,0.5-0.4,0.7,0.1c-0.1,0.9-0.5,1.7-0.8,2.5c-0.4,1-0.9,2-1.4,3c-0.1,0.2-0.3,0.4-0.6,0.4c-1.4,0-2.8,0.1-4.3,0.1
		C833.2,170.7,833,170.7,832.9,170.6z"/>
	<path class="st31" d="M807.9,175c1.1,0.4,2.2,0.9,3.4,1.3c0,1,0,2.1,0,3.1c0,0.5,0,0.5-0.5,0.5c-0.6,0-1.3,0.1-1.9,0.1
		c-0.5,0-0.9-0.1-1.3-0.2c-1.6-0.7-3.1-1.4-4.5-2.4c0,0-0.1-0.1-0.1-0.1l0,0c0.1-0.6,0.7-0.6,1.1-0.9c1-0.5,2.2-0.8,3.3-1.2
		C807.6,175.4,807.8,175.2,807.9,175z"/>
	<path class="st27" d="M812,176.6c0.6,0,1.2,0.2,1.8,0.3c2.6,0.4,5.1,0.4,7.6-0.2c0.2-0.1,0.5-0.1,0.7-0.1c0,0.8,0,1.5,0,2.3
		c0,0.4-0.1,0.5-0.5,0.5c-0.7,0-1.3,0.1-2,0.1c-2.4,0.2-4.7,0.3-7.1,0.5c-0.6,0-0.6,0-0.6-0.5C812,178.4,812,177.5,812,176.6z"/>
	<path class="st32" d="M829.2,139.5c0,0-0.1-0.1-0.1-0.1c-1.1-1.2-2.4-2.1-3.8-3c-0.2-0.1-0.5-0.2-0.5-0.5c0-0.3,0.3-0.4,0.6-0.5
		c0.5-0.2,1-0.5,1.5-0.6c0.9-0.2,1.6-0.7,2.5-0.8c1,0.6,1.8,1.4,2.7,2.2c0.2,0.2,0.3,0.3,0.3,0.6c0,0.8,0,1.7,0,2.5
		c0,0.3-0.1,0.4-0.4,0.4c-0.8-0.1-1.5-0.1-2.3-0.2C829.5,139.5,829.3,139.5,829.2,139.5z"/>
	<path class="st33" d="M791.3,144.1c0.3-1,0.7-1.9,1.2-2.8c1.6-0.4,3.1-1,4.7-1.6c0.6-0.2,1.3-0.4,1.9-0.7c0.1-0.1,0.2,0,0.3,0.1
		c-0.1,0.7,0.1,1.4,0.2,2.1c0.1,0.9,0,1.1-0.9,1.1c-0.5,0-0.7,0.3-0.8,0.6c-0.8-0.1-1.5,0.3-2.2,0.6c-1.1,0.5-2.3,0.7-3.4,1.2
		c-0.3,0.2-0.9,0.3-1-0.4l0,0C791.3,144.4,791.3,144.2,791.3,144.1z"/>
	<path class="st34" d="M810.9,130.3c0.1,0.1,0.4,0.3,0,0.4c-0.6,0.2-1.1,0.4-1.7,0.6c-0.8,0.2-1.6,0.6-2.4,0.9
		c-1.2,0.4-2.4,1-3.6,1.3c-0.9,0.3-1.8,0.7-2.7,0.9c-0.3-0.5-0.2-1.1-0.2-1.7c0.1-0.2,0.3-0.3,0.5-0.4c1.5-0.9,3-1.7,4.7-2.3
		c0.5-0.2,1.1-0.3,1.7-0.2c0.9,0.1,1.8,0.1,2.6,0.3c0.3,0.2,0.7,0,1,0.1C810.7,130.3,810.8,130.3,810.9,130.3z"/>
	<path class="st35" d="M829.4,134c-0.1,0.2-0.2,0.3-0.5,0.3c-0.4,0-0.7,0.1-1,0.4c-0.2,0.1-0.4,0.2-0.6,0.2c-0.4,0-0.7,0.1-1,0.3
		c-0.4,0.3-1,0.2-1.4,0.6c0,0-0.1,0.1-0.1,0.1c0,0.2,0.2,0.3,0.4,0.4c0.8,0.5,1.5,1,2.2,1.6c0.4,0.3,0.7,0.8,1.2,1
		c0.2,0.1,0.4,0.3,0.4,0.6c-0.7-0.6-1.4-1.2-2.2-1.7c-1.2-0.9-2.5-1.7-3.9-2.3c-0.1-0.1-0.2-0.1-0.3-0.2c0-1,0-2,0-3
		c0-0.6,0-0.6,0.6-0.5c0.7,0.1,1.4,0.2,2.1,0.2c0.3,0,0.6,0.1,0.8,0.2C827.3,132.6,828.4,133.2,829.4,134z"/>
	<path class="st32" d="M789.7,152.3c0-1.3,0.1-2.5,0.4-3.8c0.5,0.4,1.1,0.4,1.9-0.1c1.1-0.6,2.2-1,3.4-1.3c0.1,0,0.3,0,0.4,0.1
		c0,0.1,0,0.1,0,0.2c-0.1,0.2,0,0.4-0.1,0.6c0,0.1-0.1,0.1-0.1,0.2c-0.3,0.8-0.4,1.6-0.5,2.4c-0.3,0.4-0.7,0.5-1.1,0.6
		c-0.9,0.2-1.8,0.4-2.4,1C791.4,152.4,790,152.5,789.7,152.3z"/>
	<path class="st36" d="M820.4,134.2c-0.9-0.2-1.8-0.4-2.7-0.6c-1.8-0.3-3.6-0.4-5.4-0.1c-0.1,0-0.2,0-0.3,0c0-0.9,0-1.7,0-2.6
		c0-0.4,0-0.5,0.5-0.4c0.9,0.1,1.7,0.2,2.6,0.3c1.2,0.1,2.4,0.2,3.6,0.4c0.3,0.1,0.6,0,0.8,0.1c0.1,0,0.2,0,0.4,0
		c0.2,0.5-0.2,0.5-0.5,0.6c-0.9,0.4-1.8,0.7-2.8,1.1c0.3,0.2,0.6,0.2,0.9,0.2c0.8,0.1,1.6,0.4,2.5,0.6
		C820.1,133.8,820.4,133.8,820.4,134.2z"/>
	<path class="st27" d="M817.8,182c-1.9,0-3.6-0.2-5.2-0.5c-0.2,0-0.5,0-0.6-0.2c-0.2-0.4,0-0.8,0.4-0.8c2.1-0.1,4.2-0.3,6.3-0.4
		c1-0.1,1.9-0.1,2.9-0.2c0.4,0,0.5,0,0.5,0.5c0,0.3,0,0.6,0,0.9c0,0.3-0.1,0.5-0.4,0.5C820.3,181.9,819,181.9,817.8,182z"/>
	<path class="st37" d="M807.9,175c0.1,0.2,0.2,0.4-0.1,0.5c-0.7,0.2-1.5,0.5-2.2,0.6c-0.2,0-0.3,0-0.4,0.2c-0.2,0.4-0.5,0.4-0.8,0.4
		c-0.5,0.1-1,0.3-1.4,0.7c-0.7-0.4-1.4-0.9-2-1.4c0-0.1-0.1-0.1-0.2-0.1c0,0-0.1,0-0.1-0.1c0,0-0.1,0-0.1-0.1l0,0
		c-0.1,0-0.1-0.1-0.1-0.1l0,0c0,0-0.1-0.1-0.1-0.1l0,0c-0.2-0.5,0.1-0.5,0.4-0.6c1.3-0.4,2.5-1,3.9-1.4c0.1,0,0.2-0.1,0.3-0.2
		c0.1-0.1,0.2-0.1,0.3,0l0,0c0.4,0.3,0.8,0.6,1.2,0.8C806.9,174.4,807.4,174.7,807.9,175z"/>
	<path class="st36" d="M799.2,139.1c-0.4,0.3-0.8,0.5-1.3,0.6c-0.7,0.2-1.4,0.5-2.2,0.8c-0.4,0.2-0.9,0.3-1.4,0.4
		c-0.4,0.2-0.9,0.3-1.4,0.5c-0.2,0.1-0.4,0.1-0.5-0.1c0,0,0,0,0,0c0.1-0.1,0.1-0.2,0.1-0.3l0,0c0.1-0.1,0.1-0.2,0.1-0.3
		c0.5-1.2,1.3-2.2,2.1-3.2c0.2-0.2,0.4-0.3,0.6-0.2c1.2,0.1,2.4,0.2,3.6,0.3C799.5,138.1,799.3,138.6,799.2,139.1z"/>
	<path class="st38" d="M789.7,152.3c0.2,0.1,0.4,0,0.6,0c0.3-0.1,0.5-0.3,0.9-0.1c0.2,0.1,0.3-0.1,0.4-0.3c0.1-0.4,0.4-0.4,0.7-0.4
		c0.1,0,0.2,0,0.3,0c0.7-0.6,1.7-0.3,2.4-0.9c0,0,0.1,0,0.1,0c0.1,0.4,0.1,0.8,0,1.3c0,0.9,0,1.7,0,2.6c-1.6,0-3.3-0.1-4.9-0.1
		c-0.3,0-0.5-0.1-0.4-0.4C789.7,153.4,789.6,152.9,789.7,152.3z"/>
	<path class="st39" d="M835.8,163c-0.1-0.6,0.2-1.1,0.3-1.6c0.1-0.7,0.2-1.4,0.4-2.1c0.2-0.3,0.5-0.5,0.9-0.6
		c1.1-0.4,2.1-0.8,3.2-1.1c0.8-0.3,1-0.2,1,0.7c0,0.2,0,0.5,0,0.7c0,0.5,0,1.1-0.1,1.6c-0.2-0.1-0.3-0.1-0.5,0
		c-1.2,0.7-2.6,0.8-3.8,1.5c-0.3,0.2-0.8,0.2-0.7,0.6c0.1,0.3,0.5,0.1,0.8,0.1c0.9,0,1.8,0,2.7,0c0.2,0,0.4,0,0.5,0.2
		c-0.7,0.1-1.3,0.1-2,0.1C837.5,163,836.6,163,835.8,163z"/>
	<path class="st27" d="M837.7,171c-1.3,2.1-2.8,3.8-4.6,5.3c-0.2-0.1-0.2-0.2-0.2-0.3c0-1.4,0-2.9,0-4.3c0-0.5,0-0.5,0.5-0.5
		C834.8,171.1,836.2,171,837.7,171z"/>
	<path class="st40" d="M836.4,155.3c-0.1-0.9-0.2-1.9-0.3-2.8c0.2-0.1,0.4,0.1,0.4,0.3c0,0.6,0.4,0.5,0.8,0.4
		c0.9-0.3,1.8-0.6,2.7-0.9c0.4-0.1,0.7-0.4,1.1,0c0,0.1,0,0.2,0,0.2c0.1,0.2,0,0.4,0.1,0.6c0.2,0.6,0.2,1.2,0.3,1.8
		c0.1,0.6,0,0.6-0.5,0.6C839.3,155.3,837.9,155.3,836.4,155.3z"/>
	<path class="st41" d="M841.4,158.9c0-0.3,0-0.7,0-1c0-0.4-0.1-0.4-0.5-0.3c-0.5,0.2-1.1,0.4-1.6,0.6c-1,0.4-2,0.6-2.9,1.1
		c0.2-1.2,0.1-2.3,0.1-3.5c0.5-0.1,1,0,1.5,0c1,0,2,0,2.9,0c0.3,0,0.4,0.1,0.4,0.3C841.5,157.1,841.6,158,841.4,158.9z"/>
	<path class="st36" d="M840.5,164.7c-0.1-0.1-0.2-0.1-0.3-0.1c-1.8,0.7-3.6,1.4-5.4,2.1c-0.3,0.1-0.5,0.2-0.8,0.4
		c0-0.2,0.1-0.3,0.2-0.4c0.5-0.8,0.9-1.7,1.3-2.6c0.1-0.3,0.4-0.4,0.7-0.4c0.5,0,1,0.1,1.4-0.1c1.1,0,2.2,0,3.3,0
		C840.7,163.9,840.7,164.3,840.5,164.7z"/>
	<path class="st38" d="M841,152.2c-0.6-0.1-1.1,0.2-1.6,0.3c-0.8,0.2-1.5,0.6-2.3,0.8c-0.2,0-0.5,0.2-0.7,0.3
		c-0.2-0.4,0.1-0.9-0.4-1.2c-0.3-1.2-0.6-2.4-0.9-3.6c0.1-0.1,0.2,0,0.3,0.1c0.1,0.2,0.2,0.4,0.2,0.5c0.2,0.5,0.2,1.3,0.6,1.4
		c0.4,0.1,1-0.2,1.5-0.4c0.7-0.2,1.3-0.5,2-0.7c0.3-0.1,0.6-0.2,0.8,0.2c0,0,0,0.1,0,0.1c0.1,0.1,0,0.3,0.1,0.4
		C840.8,151,840.9,151.6,841,152.2z"/>
	<path class="st42" d="M820.4,134.2c-0.1-0.2-0.3-0.2-0.6-0.3c-1.1-0.3-2.2-0.6-3.4-0.7c-0.1,0-0.2-0.1-0.3-0.2
		c0-0.1,0.1-0.2,0.2-0.2c0.6-0.4,1.4-0.5,2-0.8c0.3-0.2,0.7-0.3,1.1-0.4c0.2-0.1,0.4-0.2,0.4-0.4c0.6,0,1.2,0.1,1.9,0.1
		c0.3,0,0.4,0.2,0.4,0.4c0,1,0,2,0,3C821.5,134.6,820.9,134.5,820.4,134.2z"/>
	<path class="st43" d="M795.8,147.5c0-0.1-0.1-0.3-0.2-0.2c-1.1,0.3-2.2,0.6-3.1,1.2c-0.5,0.3-1.1,0.5-1.6,0.6
		c-0.5,0.1-0.6,0.1-0.6-0.5c0-0.8,0.3-1.5,0.4-2.2c0.1-0.3,0.3-0.3,0.5-0.3c1.2,0.1,2.4,0.1,3.5,0.2c0.6,0,1.1,0.1,1.7,0.1
		c0,0.3-0.1,0.5-0.2,0.8c-0.1,0.1,0,0.3-0.1,0.4l0,0C795.9,147.6,795.8,147.6,795.8,147.5z"/>
	<path class="st44" d="M823.2,170.5c-1.1,0.7-2.4,1-3.6,1.2c-3.3,0.6-6.4,0.1-9.4-1.3c-0.7-0.3-1.4-0.7-2-1.1
		c-0.3-0.2-0.5-0.3-0.9-0.3c-2.1-0.1-4.2-0.2-6.3-0.3c-0.1,0-0.2,0-0.3,0c-0.2,0-0.3,0.2-0.1,0.3c0.3,0.4,0.6,0.7,0.9,1.1
		c0.6,0.6,1.1,1.1,1.7,1.7c-0.9,0-1.7,0.1-2.6,0.1c-0.4,0-0.5,0-0.5-0.5c0-0.8,0-1.6,0-2.3c0-0.4-0.1-0.8-0.5-1
		c-0.2,0.1-0.2,0.3-0.2,0.5c0,0.9,0,1.8,0,2.7c0,0.6,0,0.7-0.7,0.7c-0.2,0-0.4,0-0.7,0c0-0.3,0.3-0.3,0.5-0.3c0.4,0,0.5-0.3,0.5-0.6
		c0-0.4,0-0.8,0-1.3c0-0.7-0.2-1.5,0.2-2.2c0.1,0.1,0.3,0.2,0.4,0.3c0.4,0.6,0.9,0.7,1.6,0.6c1.2-0.1,2.3,0.1,3.5,0.2
		c0.7,0,1.5,0.1,2.3,0.1c0.8,0,1.4,0.4,2,0.8c0.6,0.4,1.2,0.8,1.9,1c0.4,0.1,0.7,0.3,1,0.4c1.2,0.4,2.5,0.8,3.8,0.8
		c0.5,0,1,0.2,1.5,0.1c1.1-0.1,2.2-0.2,3.3-0.5c0.6-0.2,1.3-0.3,1.9-0.7c0.2-0.2,0.6,0,0.8-0.2C823.2,170.4,823.2,170.5,823.2,170.5
		C823.2,170.5,823.2,170.5,823.2,170.5z"/>
	<path class="st45" d="M799.2,167.6c0,0.8,0,1.5,0,2.3c-1,0.5-2,1.1-3.2,1.2c-0.6-0.6-1.1-1.3-1.5-2.1c-0.1-0.3,0.1-0.5,0.3-0.5
		c0.9-0.2,1.7-0.7,2.6-0.9c0.5-0.1,0.9-0.4,1.1-0.9C798.9,166.9,798.8,167.4,799.2,167.6z"/>
	<path class="st28" d="M840.4,149.9c-0.2-0.1-0.4-0.1-0.6,0c-0.7,0.2-1.3,0.5-1.9,0.7c-0.3,0.1-0.6,0.3-0.9,0.3
		c-0.4,0-0.6,0.3-1,0.5c-0.1-0.6-0.3-1.1-0.5-1.7c-0.1-0.3-0.1-0.7-0.4-0.9c-0.1-0.2-0.2-0.5-0.2-0.7c1.6,0.1,3.1,0.1,4.7,0.2
		c0.3,0,0.5,0.1,0.6,0.5C840.2,149.2,840.4,149.5,840.4,149.9z"/>
	<path class="st38" d="M798.6,166.6c0.1,0.6,0.1,0.6-0.5,0.8c-1,0.4-1.9,0.8-2.9,1.1c-0.3,0.1-0.6,0-0.6,0.5
		c-0.4-0.5-0.8-1.1-1.1-1.8c0-0.1-0.1-0.1-0.1-0.2c0,0,0,0,0-0.1c0-0.4,0.3-0.4,0.5-0.5c1.2-0.5,2.5-0.9,3.7-1.5
		C797.9,165.5,798.2,166.1,798.6,166.6z"/>
	<path class="st28" d="M797.5,164.9c-0.3,0.5-0.8,0.7-1.2,0.8c-0.7,0.2-1.4,0.6-2.2,0.8c-0.3,0.1-0.6,0.2-0.8,0.5
		c-0.6-0.9-1-1.9-1.4-2.9c0.1-0.2,0.3-0.1,0.4-0.1c1.5,0,3,0,4.5-0.1c0.1,0,0.2,0,0.3,0c0,0.2,0.1,0.3,0.1,0.5c0,0,0.1,0.1,0.1,0.1
		c0,0,0,0.1,0,0.1C797.4,164.7,797.4,164.8,797.5,164.9L797.5,164.9z"/>
	<path class="st46" d="M791.2,144.4c0.4,0.3,0.7,0.4,1.1,0.1c0.6-0.4,1.2-0.5,1.8-0.7c0.4-0.1,0.7-0.3,1.1-0.4
		c0.4-0.1,0.7-0.4,1.1-0.4c0.2,0,0.3-0.2,0.5-0.3c0.3-0.3,0.4-0.2,0.8,0.1c-0.1,0.6-0.5,1.1-0.7,1.6c-0.1,0.3-0.2,0.6-0.3,0.9
		c0,0.1,0,0.2-0.1,0.3c-1.8-0.1-3.7-0.2-5.6-0.3C790.9,145.1,791,144.8,791.2,144.4z"/>
	<path class="st47" d="M804.9,173.3c0.1,0.2,0.1,0.4-0.2,0.4c-0.6,0.1-1.1,0.4-1.6,0.5c-0.6,0.1-1.1,0.5-1.6,0.7
		c-0.2,0.1-0.5,0.2-0.7,0.2c-0.3,0-0.4,0.2-0.4,0.4c-0.3-0.1-0.3-0.4-0.3-0.6c0-0.6,0-1.2,0-1.9c0-0.5,0-0.5,0.5-0.6
		c0.8,0,1.5,0,2.3-0.1c0.3,0,0.6,0,0.9-0.1c0.1,0,0.1,0,0.1,0.1c0.2,0.3,0.6,0.4,0.8,0.7c0.1,0,0.1,0,0.2,0.1
		C804.8,173.2,804.8,173.2,804.9,173.3C804.8,173.3,804.9,173.3,804.9,173.3z"/>
	<path class="st48" d="M840.4,162.9c-1.3,0-2.6,0-3.9,0c-0.2,0-0.5,0.1-0.5-0.1c-0.1-0.3,0.1-0.5,0.3-0.6c0.1-0.1,0.3-0.2,0.4-0.2
		c0.6-0.1,1-0.4,1.5-0.6c0.6-0.2,1.3-0.3,2-0.6c0.3-0.1,0.5-0.3,0.8-0.4c0.3-0.1,0.4,0,0.4,0.3c0,0.1,0,0.2,0,0.4
		c-0.1,0.2,0,0.5-0.1,0.7c0,0.3,0,0.6-0.1,0.8C840.9,162.9,840.9,162.9,840.4,162.9z"/>
	<path class="st49" d="M795.5,136.8c1.2-1.3,2.3-2.5,3.6-3.4c0.2,0.1,0.2,0.3,0.2,0.4c0,0.9,0,1.9,0,2.8c0,0.5,0,0.5-0.5,0.5
		C797.8,137,796.7,136.9,795.5,136.8z"/>
	<path class="st50" d="M817.4,129c1.5,0.2,2.9,0.6,4.3,1c0.3,0.1,0.4,0.5,0.3,0.8c-0.1,0.2-0.3,0.1-0.4,0.1c-0.7-0.1-1.3-0.1-2-0.2
		c-1.3-0.1-2.7-0.3-4-0.4c-0.2,0-0.3-0.1-0.5-0.1c-0.1-0.4,0.2-0.4,0.5-0.5C816.2,129.3,816.8,129.1,817.4,129z"/>
	<path class="st51" d="M833.5,140.3c-0.3,0-0.5,0.1-0.5,0.4c0,1.2,0,2.4,0,3.6c0,0.1,0,0.3,0.1,0.3c0.7,0.7,0.9,1.6,1.4,2.4
		c0.1,0.3,0.3,0.5,0.6,0.6c-0.2,0-0.3,0-0.5,0c-0.4-0.8-0.7-1.5-1.1-2.3c-0.2-0.4-0.4-0.5-0.8-0.5c-0.4,0-0.8,0-1.1-0.1
		c0.9,0,0.8,0,0.7-0.9c-0.1-0.7-0.4-1.2-0.9-1.6c-0.1-0.1-0.2-0.2-0.4-0.2c0.2-0.2,0-0.4-0.1-0.6c-0.4-0.5-0.9-1-1.3-1.5
		c0.7,0,1.4,0.1,2.1,0.1c0.6,0.1,0.6,0.1,0.6,0.7c0,0.8,0,1.6,0,2.3c0,0.4,0.1,0.7,0.4,1c0.2-0.2,0.1-0.4,0.1-0.6c0-0.9,0-1.8,0-2.7
		C832.9,140.2,832.9,140.2,833.5,140.3z"/>
	<path class="st52" d="M828.3,179.3c-0.9,0.6-2,1-3,1.4c-0.7,0.2-1.3,0.4-2,0.6c-0.6,0.1-0.6,0.1-0.6-0.5c0,0,0-0.1,0-0.1
		c0-1.1-0.2-0.9,0.9-1C825.2,179.5,826.7,179.4,828.3,179.3z"/>
	<path class="st53" d="M817.4,129c-0.1,0.2-0.3,0.3-0.5,0.3c-0.5,0.1-0.9,0.4-1.4,0.5c-0.2,0-0.3,0.2-0.4,0.4c-1,0-1.9-0.2-2.8-0.3
		c-0.2,0-0.4-0.1-0.4-0.4c0-0.1,0-0.2,0-0.3c0-0.5,0-0.5,0.5-0.5c1,0,1.9,0,2.9,0c0.2,0.1,0.5,0,0.7,0.1c0.2,0,0.4,0,0.6,0
		c0.1,0.1,0.3,0,0.4,0.1C817.2,128.9,817.3,129,817.4,129z"/>
	<path class="st41" d="M796,171.1c0-0.2,0.1-0.3,0.3-0.3c0.7,0,1.2-0.2,1.8-0.6c0.3-0.2,0.7-0.3,1.1-0.3c0,0.5,0,1,0,1.5
		c0,0.3-0.1,0.5-0.5,0.5c-0.3,0-0.5-0.1-0.8,0.1c-0.1,0-0.3,0-0.4,0c-0.7,0.2-1.1-0.1-1.4-0.7c0-0.1-0.1-0.1-0.1-0.2l0,0
		C796.1,171.2,796.1,171.1,796,171.1L796,171.1z"/>
	<path class="st54" d="M802.1,137.8c-0.5,0.5-0.9,0.9-1.4,1.4c-0.1,0.1-0.3,0.2-0.2,0.4c0.1,0.1,0.2,0.1,0.4,0.1
		c1.4,0.1,2.7,0.2,4.1,0.3c0.7,0.1,1.5,0.1,2.2,0.2c0.4,0,0.8,0,1.1-0.2c1.1-0.6,2.2-1,3.4-1.2c0.1,0,0.3,0,0.4,0
		c0,0-0.1,0.1-0.1,0.1c-1.3,0.3-2.6,0.8-3.8,1.4c-0.5,0.2-0.9,0.2-1.3,0.2c-0.1,0-0.3-0.1-0.4-0.1c-1,0.1-1.9-0.1-2.9-0.2
		c-0.8-0.1-1.6,0-2.4-0.2c-0.3-0.1-0.6,0-0.9,0c-0.1-0.7-0.1-1.4,0-2.1C800.8,137.7,801.4,137.8,802.1,137.8z"/>
	<path class="st55" d="M800.2,137.8c0,0.7,0,1.4,0,2.1c-0.2,0.7-0.1,1.4-0.1,2.1c0,0.4,0.2,0.4,0.5,0.4c1-0.1,2.1,0.2,3.1,0.1
		c0.1,0,0.3,0,0.4,0c0.2,0.1,0.4,0.3,0.1,0.5c0-0.3-0.1-0.4-0.4-0.4c-1.7,0-3.4-0.2-5.1-0.3c-0.4,0-0.6,0.1-0.7,0.4
		c-0.4,0.8-0.9,1.5-1.2,2.3c-0.1,0.1-0.2,0.3-0.2,0.4c0-0.4,0.2-0.7,0.3-1.1c0.2-0.5,0.5-1,0.7-1.5c0.1-0.1,0.2-0.2,0.2-0.3
		c0.1-0.3,0.4-0.4,0.7-0.4c0.9,0,0.9,0.1,0.8-0.9c-0.1-0.8-0.1-1.5-0.1-2.3c0-0.5,0.1-1-0.1-1.5c0.3,0,0.3,0.2,0.3,0.4
		c0,0.6,0,1.2,0,1.7c0,0.2,0,0.4,0.1,0.6c0.4-0.2,0.6-0.5,0.6-0.9c0-0.4,0-0.9,0-1.3C800,138.1,800,137.9,800.2,137.8z"/>
	<path class="st56" d="M835.5,139.9c-0.8-0.1-1.5-0.1-2.2-0.2c-0.2,0-0.4-0.1-0.4-0.3c0-0.7,0-1.5,0-2.4
		C833.9,138,834.7,138.9,835.5,139.9z"/>
	<path class="st57" d="M799.4,174.7c-0.8-0.7-1.4-1.4-2.1-2.1c0.7,0,1.3,0,1.8-0.1c0.2,0,0.3,0.1,0.3,0.3
		C799.4,173.4,799.4,174,799.4,174.7z"/>
	<path class="st58" d="M807.9,129.4c1-0.4,2-0.6,3-0.6c0.3,0,0.3,0.1,0.4,0.3c0,0.6,0,0.7-0.6,0.6
		C809.8,129.6,808.9,129.5,807.9,129.4z"/>
	<path class="st59" d="M823.2,170.5c0-0.1,0-0.1,0-0.2c0,0,0,0,0,0c0.1-0.2,0.3-0.2,0.4-0.3l0,0c0,0,0.1-0.1,0.1-0.1
		c1-0.3,1.9-0.1,2.9-0.1c0.2,0,0.4,0.1,0.5,0.1c1.3-0.1,2.6,0.2,3.8,0.1c0.3,0,0.5,0,0.6,0.3c0.1,0.3,0.4,0.2,0.6,0.2
		c-0.3,0.2-0.6,0.1-1,0.1c0.1-0.3,0.2-0.4-0.2-0.5c-1.6-0.1-3.2-0.2-4.9-0.3c-0.2,0-0.3,0-0.5,0c-0.8-0.1-1.6-0.1-2.3,0.4
		C823.3,170.5,823.3,170.5,823.2,170.5z"/>
	<path class="st60" d="M825.1,175.5c-0.5,0.3-1,0.5-1.6,0.7c-0.7,0.2-0.7,0.3-0.7,1c0,0.6,0.1,1.1-0.1,1.7c-0.1-0.9,0-1.7-0.1-2.6
		c0.7-0.4,1.5-0.6,2.2-0.9C825,175.4,825,175.4,825.1,175.5z"/>
	<path class="st61" d="M823.8,131.1c-0.2,0-0.5,0-0.7,0c-0.1,0-0.2,0-0.3-0.1c-0.2-0.1-0.1-0.3-0.1-0.4c0-0.2,0.2-0.1,0.3-0.1
		c0.4,0.2,0.8,0.3,1.2,0.5C824.2,131.3,824,131.1,823.8,131.1z"/>
	<path class="st62" d="M810,180.6c0.3,0,0.7,0,1,0c0.2,0,0.4,0.1,0.3,0.3c0,0.3-0.2,0.2-0.4,0.2c-0.3-0.1-0.6-0.2-0.9-0.3
		C809.9,180.7,809.9,180.7,810,180.6z"/>
	<path class="st63" d="M831.1,171.2c-0.3,0.3-0.6,0.6-0.9,0.9c-0.2,0.1-0.3,0.3-0.5,0.3c0.5-0.5,0.9-1,1.5-1.5
		C831.1,171,831.1,171.1,831.1,171.2z"/>
	<path class="st59" d="M832.3,170.6c0-0.4-0.1-0.8,0.1-1.2C832.3,169.9,832.5,170.3,832.3,170.6z"/>
	<path class="st64" d="M823.8,131.1c0.1,0,0.3,0,0.4-0.1c0.1,0,0.2,0.1,0.3,0.2C824.3,131.2,824.1,131.2,823.8,131.1z"/>
	<path class="st29" d="M810.6,130.3c-0.3,0-0.7,0.1-1-0.1C810,130.2,810.3,130.1,810.6,130.3z"/>
	<path class="st65" d="M871.4,159.7c-0.1-0.2-0.3-0.1-0.4-0.2c0.2-0.1,0.5-0.1,0.7-0.1C871.6,159.6,871.5,159.7,871.4,159.7z"/>
	<path class="st66" d="M756.4,128.3c0.1,0.2,0.3,0.1,0.4,0.2c-0.3,0-0.5,0-0.7-0.2C756.2,128.2,756.3,128.3,756.4,128.3z"/>
	<path class="st42" d="M819.5,131.2c-0.3,0-0.6,0.1-0.8-0.1C818.9,131.1,819.2,131.1,819.5,131.2z"/>
	<path class="st67" d="M819.6,230.8c0.1-0.1,0.1-0.2,0.1-0.3c0,0.1,0.1,0.1,0.1,0.2c0,0.1,0.1,0.2,0,0.3
		C819.7,231.1,819.6,230.9,819.6,230.8z"/>
	<path class="st39" d="M841.1,161.6c0-0.2-0.1-0.5,0.1-0.7C841.3,161.1,841.3,161.4,841.1,161.6z"/>
	<path class="st68" d="M810.2,90.2c0-0.1,0-0.2-0.2-0.3c0-0.1,0.1-0.2,0.2-0.2c0.1,0,0.1,0.2,0.1,0.3
		C810.3,90,810.3,90.1,810.2,90.2z"/>
	<path class="st69" d="M825.2,231c0,0.1,0,0.2,0.1,0.3c0,0.1-0.1,0.2-0.2,0.2c-0.1,0-0.1-0.1,0-0.2C825.1,231.1,825.1,231,825.2,231
		z"/>
	<path class="st50" d="M816,128.8c-0.2,0-0.5,0.1-0.7-0.1C815.5,128.7,815.8,128.7,816,128.8z"/>
	<path class="st70" d="M752.5,185.2c0,0.1,0.1,0.2,0.1,0.2c-0.1,0-0.2,0-0.2-0.1c0,0-0.1-0.1-0.1-0.1
		C752.4,185.2,752.5,185.2,752.5,185.2z"/>
	<path class="st26" d="M776.5,139.6c-0.1,0.2-0.3,0.2-0.5,0.1C776.1,139.6,776.3,139.7,776.5,139.6z"/>
	<path class="st71" d="M796.4,178.1c0.1-0.1,0.2-0.2,0.3-0.1c0.1,0.1-0.1,0.2-0.1,0.2C796.5,178.3,796.4,178.2,796.4,178.1z"/>
	<path class="st72" d="M872.3,154c0-0.1,0.1-0.1,0.1-0.2c0.1,0,0.2,0.1,0.2,0.2C872.5,154.1,872.4,154.1,872.3,154z"/>
	<path class="st73" d="M810,180.6c0,0.1,0,0.1,0,0.2c0,0,0,0-0.1,0c-0.1,0-0.3-0.1-0.2-0.2C809.7,180.5,809.9,180.6,810,180.6z"/>
	<path class="st38" d="M841.1,153c-0.2-0.2-0.1-0.4-0.1-0.6C841.1,152.6,841.1,152.8,841.1,153z"/>
	<path class="st50" d="M817.1,128.9c-0.2,0-0.3,0-0.4-0.1C816.8,128.8,817,128.8,817.1,128.9z"/>
	<path class="st74" d="M796.4,178.1c0.1,0,0.1,0.1,0.2,0.2c0,0-0.1,0.1-0.1,0.1c-0.1-0.1-0.1-0.1-0.2-0.2
		C796.3,178.2,796.4,178.2,796.4,178.1z"/>
	<path class="st75" d="M830.9,183.1c-0.1,0-0.1-0.1-0.1-0.2c0.2,0,0.2,0.1,0.3,0.2C831.1,183.1,831,183.1,830.9,183.1z"/>
	<path class="st28" d="M840.6,150.5c-0.2-0.1-0.1-0.3-0.1-0.4C840.6,150.2,840.6,150.3,840.6,150.5z"/>
	<path class="st26" d="M802.6,200.6c0.2,0.1,0.2,0.2,0.1,0.4C802.6,200.9,802.6,200.8,802.6,200.6z"/>
	<path class="st46" d="M791.3,144.1c0,0.1,0,0.2-0.1,0.3C791.2,144.3,791.2,144.2,791.3,144.1z"/>
	<path class="st33" d="M792.8,140.8c0,0.1,0,0.2-0.1,0.3C792.7,141,792.7,140.9,792.8,140.8z"/>
	<path class="st26" d="M785.4,169C785.4,169,785.5,169,785.4,169c0-0.1,0-0.1,0.1-0.1C785.5,168.9,785.5,168.9,785.4,169
		C785.5,169,785.5,169,785.4,169z"/>
	<path class="st33" d="M792.7,141.1c0,0.1,0,0.2-0.1,0.3C792.5,141.3,792.6,141.2,792.7,141.1z"/>
	<path class="st47" d="M800.6,175.7c0,0,0.1,0.1,0.1,0.1C800.6,175.8,800.6,175.8,800.6,175.7z"/>
	<path class="st47" d="M800.8,175.9c0.1,0,0.1,0.1,0.2,0.1C800.9,176,800.8,176,800.8,175.9z"/>
	<path class="st37" d="M803,177.5c0,0,0.1,0.1,0.1,0.1C803,177.6,803,177.5,803,177.5z"/>
	<path class="st26" d="M785,169.4c0-0.1,0-0.1,0.1-0.1C785.1,169.4,785.1,169.4,785,169.4z"/>
	<path class="st45" d="M796.1,171.2c0.1,0,0.1,0.1,0.1,0.2C796.2,171.3,796.2,171.3,796.1,171.2z"/>
	<path class="st45" d="M796,171.1c0,0.1,0.1,0.1,0.1,0.2C796.1,171.2,796,171.1,796,171.1z"/>
	<path class="st47" d="M800.3,175.5c0,0,0.1,0.1,0.1,0.1C800.4,175.6,800.3,175.6,800.3,175.5z"/>
	<path class="st59" d="M831.1,171c0-0.1,0.1-0.1,0.1-0.2C831.2,170.9,831.2,170.9,831.1,171z"/>
	<path class="st47" d="M800.4,175.6c0,0,0.1,0.1,0.1,0.1C800.5,175.7,800.5,175.7,800.4,175.6z"/>
	<path class="st28" d="M793.4,167.1c0,0.1,0.1,0.1,0.1,0.2C793.4,167.2,793.4,167.1,793.4,167.1z"/>
	<path class="st44" d="M823.6,170.1c-0.1,0.1-0.3,0.2-0.4,0.3C823.2,170.1,823.4,170.1,823.6,170.1z"/>
	<path class="st38" d="M797.5,164.9c-0.1-0.1-0.1-0.2-0.1-0.3C797.5,164.7,797.5,164.8,797.5,164.9z"/>
	<path class="st51" d="M830.7,142c0.1-0.1,0.2-0.1,0.2,0C830.9,142,830.8,142,830.7,142z"/>
	<path class="st44" d="M823.7,170c0,0-0.1,0.1-0.1,0.1C823.6,170.1,823.7,170,823.7,170z"/>
	<path class="st38" d="M797.4,164.5c0,0-0.1-0.1-0.1-0.1C797.3,164.4,797.3,164.5,797.4,164.5z"/>
	<path class="st43" d="M795.1,151.9c0-0.4,0-0.8,0-1.3c0.1-0.9,0.1-1.7,0.5-2.5c0.1,0.1,0.1,0.2,0,0.3c-0.2,0.9-0.4,1.8-0.4,2.8
		C795.2,151.4,795.2,151.6,795.1,151.9z"/>
	<path class="st76" d="M795.6,148.4c0-0.1,0-0.2,0-0.3c0,0,0,0,0,0c0.1-0.2,0-0.4,0.1-0.5c0,0,0,0,0,0c0,0,0.1,0,0.1,0
		C795.9,147.8,795.9,148.1,795.6,148.4z"/>
	<path class="st76" d="M795.9,147.5c0-0.2,0-0.3,0.1-0.4C796.1,147.3,796.1,147.4,795.9,147.5z"/>
	<path class="st24" d="M827.4,152.9c-1.3-0.1-2.6-0.2-3.9-0.3c-0.5,0-0.5-0.1-0.5-0.5c0-0.8,0-1.7,0-2.5c0-0.4,0-0.5,0.4-0.5
		c2.2,0.1,4.5,0.3,6.7,0.4c0.3,0,0.4,0.2,0.5,0.4c0.3,0.9,0.6,1.8,0.8,2.7c0.1,0.5,0,0.5-0.5,0.5C829.8,153.1,828.6,153,827.4,152.9
		C827.4,152.9,827.4,152.9,827.4,152.9z"/>
	<path class="st37" d="M804.7,173.2C804.7,173.2,804.7,173.2,804.7,173.2c-0.1,0.1-0.3,0.1-0.3,0c0-0.4-0.8-0.3-0.7-0.8
		c0.4,0.1,0.6,0.5,1,0.6C804.8,173.1,804.8,173.2,804.7,173.2z"/>
	<path class="st77" d="M806.3,174.1c-0.5-0.1-0.9-0.3-1.2-0.8C805.6,173.5,806,173.8,806.3,174.1z"/>
	<path class="st78" d="M826.7,174.5c-0.3,0.4-0.7,0.6-1.2,0.7C825.8,174.9,826.2,174.7,826.7,174.5z"/>
	<path class="st78" d="M825.1,175.5c-0.1,0-0.1,0-0.2,0c0.2-0.2,0.3-0.3,0.6-0.3C825.4,175.4,825.2,175.4,825.1,175.5z"/>
	<path class="st77" d="M804.7,173.2c0,0,0-0.1,0-0.1c0.2,0,0.3,0.1,0.4,0.3c-0.1,0-0.2,0-0.3,0c0,0,0,0,0,0
		C804.8,173.3,804.8,173.2,804.7,173.2L804.7,173.2z"/>
	<path class="st43" d="M795.8,147.5c0,0.2,0,0.4-0.1,0.5C795.6,147.9,795.6,147.7,795.8,147.5z"/>
	<path class="st37" d="M804.7,173.2c0,0,0.1,0.1,0.1,0.1C804.8,173.3,804.8,173.2,804.7,173.2z"/>
</g>
<g>
	<g>
		<path class="st25" d="M880.1,172.2c0.1-0.5,0.2-0.9,0.3-1.4c0.9-3.3,3.8-5.6,7.4-5.6c5.6-0.1,11.1,0,16.7,0c0.1,0,0.2,0,0.3,0
			c0,1.6,0,3.2,0,4.9c-0.2,0-0.5,0-0.7,0c-5.3,0-10.6,0-15.9,0c-1.2,0-2.2,0.3-2.7,1.5c-0.6,1.2-0.6,2.4,0.2,3.5
			c0.6,0.9,1.4,1.1,2.4,1.1c3.6,0,7.2,0,10.8,0c1.9,0,3.6,0.4,5.2,1.5c2.5,1.7,3.4,4.2,3.3,7.1c-0.2,5.1-4.3,7.5-8.2,7.5
			c-6,0-12,0-18,0c-0.2,0-0.4,0-0.7,0c0-1.7,0-3.3,0-5c0.2,0,0.5,0,0.7,0c6.1,0,12.2,0,18.3,0c1.4,0,2.4-0.7,2.8-1.9
			c0.4-1.5,0-3-1.1-3.7c-0.5-0.3-1.1-0.5-1.6-0.5c-3.7,0-7.4,0-11.1,0c-2,0-3.9-0.5-5.4-1.8c-1.6-1.3-2.5-2.9-2.8-5
			c0-0.1-0.1-0.2-0.1-0.3C880.1,173.6,880.1,172.9,880.1,172.2z"/>
		<path class="st25" d="M1028.4,183.6c3.4,3,6.8,5.8,10.2,8.8c-0.8,0-1.4,0-2.1,0c-1.7,0-3.4,0-5.1,0c-0.3,0-0.8-0.2-1-0.4
			c-3.1-2.7-6.3-5.4-9.4-8.1c-0.3-0.2-0.7-0.4-1-0.4c-1-0.1-1.9,0-2.9,0c0-1.7,0-3.3,0-5c0.2,0,0.4,0,0.7,0c3.5,0,6.9,0,10.4,0
			c2,0,3.7-1.1,4.1-2.9c0.3-1.5,0.2-3.1,0.2-4.7c0-0.5-0.4-0.7-0.9-0.7c-5.4,0-10.8,0-16.1,0c0,0-0.1,0-0.2,0c0,7.4,0,14.7,0,22.2
			c-1.7,0-3.3,0-5,0c0-0.2,0-0.4,0-0.6c0-7.9,0-15.8,0-23.8c0-1.8,1-2.8,2.8-2.8c6.1,0,12.1,0.1,18.2,0c3.9-0.1,6.3,2.7,6.3,5.8
			c0,2,0.1,4-0.3,5.9c-0.7,3.6-3.3,5.6-6.8,6.4C1029.7,183.4,1029.1,183.5,1028.4,183.6z"/>
		<path class="st25" d="M998.2,192.4c0-2.2,0-4.4,0-6.6c-5.7,0-11.5,0-17.3,0c0,2.2,0,4.4,0,6.6c-1.7,0-3.3,0-4.9,0
			c0-0.1,0-0.2,0-0.3c0-4.8-0.1-9.6,0-14.4c0.1-5.7,4.2-10.7,9.8-12c1.2-0.3,2.4-0.4,3.7-0.4c3.7-0.1,7.3,0,11,0
			c1.8,0,2.7,1,2.7,2.7c0,7.9,0,15.8,0,23.7c0,0.2,0,0.5,0,0.8C1001.5,192.4,999.9,192.4,998.2,192.4z M998.2,180.7
			c0-3.5,0-7,0-10.5c-0.1,0-0.1-0.1-0.1-0.1c-3.2,0-6.5-0.1-9.7,0.1c-2.3,0.2-4.4,1.2-5.9,3.2c-1.6,2.2-1.7,4.7-1.6,7.2
			C986.7,180.7,992.4,180.7,998.2,180.7z"/>
		<path class="st25" d="M926.1,192.7c-1.7,0-3.3,0.1-5,0c-4.6-0.4-8.6-4-9.5-8.6c-0.2-1.2-0.2-2.4-0.3-3.6c0-1.7,0-3.4,0-5.1
			c0.1-5,4-9.5,9-10.3c1.3-0.2,2.5-0.2,3.8-0.2c2.2,0,4.4,0,6.6,0.1c4.6,0.3,8.8,4,9.7,8.6c0.2,1.2,0.2,2.5,0.3,3.8
			c0,1.7,0,3.4,0,5.1c-0.1,4.9-3.9,9.4-8.8,10.2L926.1,192.7z M926.1,187.8c1.2,0,2.5,0,3.7,0c3.2-0.1,5.8-2.4,6-5.6
			c0.1-2.1,0.1-4.3,0.1-6.4c-0.1-3.5-2.5-5.9-5.8-6.1c-2.6-0.1-5.2-0.1-7.8,0c-3.2,0.1-5.7,2.5-5.8,5.5c-0.1,2.3-0.1,4.6,0,6.9
			c0.1,2.8,2.1,5.1,4.9,5.5L926.1,187.8z"/>
		<path class="st25" d="M972,187.4c0,1.7,0,3.3,0,5c-0.2,0-0.5,0-0.7,0c-7.2,0-14.4,0-21.6,0c-1.7,0-2.7-1-2.7-2.6
			c0-8.1,0-16.2,0-24.2c0-0.1,0-0.2,0-0.3c1.6,0,3.2,0,4.9,0c0,7.4,0,14.8,0,22.2C958.6,187.4,965.3,187.4,972,187.4z"/>
	</g>
	<g>
		<path class="st25" d="M953.9,128.6c0,1.7,0,3.3,0,4.9c-0.3,0-0.5,0-0.8,0c-6.3,0-12.5,0-18.8,0c-0.2,0-0.5,0-0.7,0
			c-1.2,0.1-1.7,0.7-1.7,1.9c0,3.4,0,6.8,0,10.2c0,1.1,0,2.1,0,3.2c0,1.2,0.6,1.9,1.9,1.9c0.7,0,1.4,0,2.1,0c4.2,0,8.4,0,12.5,0
			c0.2,0,0.4,0,0.7,0c0-2.1,0-4.1,0-6.1c-4.3,0-8.7,0-13.1,0c0-1.7,0-3.3,0-5c0.2,0,0.4,0,0.7,0c4.9,0,9.8,0,14.7,0
			c1.7,0,2.7,1,2.7,2.7c0,3.6,0,7.1,0,10.7c0,1.7-1,2.7-2.7,2.7c-5.9,0-11.8,0-17.7,0c-3.3,0-6-2-6.7-5.2c-0.1-0.5-0.2-1-0.2-1.5
			c0-4.5,0-9.1,0-13.6c0-3.6,2.3-6.3,5.9-6.8c0.4-0.1,0.8,0,1.2-0.1c6.5,0,12.9,0,19.4,0C953.5,128.5,953.7,128.6,953.9,128.6z"/>
		<path class="st25" d="M982.7,139.6c0-3.7,0-7.3,0-11c1.7,0,3.3,0,4.9,0c0,9,0,18.1,0,27.1c-1.6,0-3.2,0-4.9,0c0-3.7,0-7.3,0-11
			c-5.8,0-11.5,0-17.3,0c0,3.7,0,7.3,0,11c-1.7,0-3.3,0-4.9,0c0-9,0-18.1,0-27.1c1.6,0,3.2,0,4.9,0c0,3.6,0,7.3,0,11
			C971.2,139.6,976.9,139.6,982.7,139.6z"/>
		<path class="st25" d="M886.2,155.7c-1.7,0-3.3,0-5,0c0-9.1,0-18.1,0-27.1c1.6,0,3.3,0,5,0c0,3.7,0,7.3,0,11c5.8,0,11.5,0,17.3,0
			c0-3.7,0-7.3,0-11c1.7,0,3.3,0,4.9,0c0,9,0,18.1,0,27.1c-1.6,0-3.2,0-4.9,0c0-3.6,0-7.3,0-11c-5.8,0-11.5,0-17.3,0
			C886.2,148.3,886.2,152,886.2,155.7z"/>
		<path class="st25" d="M915.4,128.6c1.6,0,3.2,0,4.9,0c0,9.1,0,18.1,0,27.1c-1.6,0-3.2,0-4.9,0
			C915.4,146.7,915.4,137.7,915.4,128.6z"/>
	</g>
	<linearGradient id="SVGID_1_" gradientUnits="userSpaceOnUse" x1="1027.0126" y1="105.3282" x2="1160.5692" y2="182.4371">
		<stop  offset="1.065558e-07" style="stop-color:#F8C708"/>
		<stop  offset="0.5" style="stop-color:#F6A204"/>
		<stop  offset="1" style="stop-color:#F17900"/>
	</linearGradient>
	<path class="st79" d="M1176,155.7c-2.5,0-4.9,0-7.4,0c-0.2,0-0.5-0.2-0.7-0.3c-3.1-2.7-6.2-5.4-9.3-8.1c-0.4-0.3-0.7-0.5-1.2-0.5
		c-0.9,0-1.8,0-2.8,0c0-1.6,0-3.3,0-5c0.2,0,0.5,0,0.7,0c3.4,0,6.7,0,10.1,0c0.6,0,1.1-0.1,1.7-0.2c1.8-0.5,2.9-2,2.9-3.9
		c0-1,0-1.9,0-2.9c0-1.1-0.2-1.3-1.3-1.3c-2.6,0-5.2,0-7.7,0c-2.5,0-5,0-7.4,0c-0.2,0-0.5,0-0.8,0c0,7.4,0,14.8,0,22.2
		c-1.7,0-3.3,0-5,0c0-0.2,0-0.4,0-0.5c0-8,0-16,0-24c0-1.6,1-2.6,2.6-2.6c6.3,0,12.5,0,18.8,0c3.1,0,5.2,1.7,5.7,4.7
		c0.4,2.5,0.5,5-0.2,7.4c-1,3.5-3.6,5.3-7,6c-0.5,0.1-1,0.1-1.6,0.2c0.9,0.8,1.7,1.5,2.5,2.2c2.4,2.1,4.8,4.2,7.2,6.2
		c0.1,0.1,0.3,0.2,0.4,0.3C1176,155.7,1176,155.7,1176,155.7z M1103.1,145.5c-2.3-3.7-4.7-7.4-6.9-11.2c-1.2-2-3.6-1.8-4.6,0
		c-2.3,3.9-4.8,7.7-7.2,11.6c-0.1,0.1-0.2,0.2-0.3,0.5c-1.1-6-2.2-11.9-3.2-17.8c-1.7,0-3.3,0-5,0c0,0.2,0,0.3,0,0.4
		c0.7,3.6,1.3,7.3,2,10.9c0.8,4.6,1.7,9.3,2.5,13.9c0.2,1.2,0.9,2.1,2,2.3c1.1,0.2,2.1-0.2,2.7-1.3c2.3-3.8,4.7-7.7,7-11.5
		c0.6-1,1.2-2,1.9-3.1c0.5,0.7,0.9,1.4,1.3,2.1c2.6,4.2,5.1,8.4,7.7,12.6c0.6,1.1,1.6,1.5,2.7,1.3c1-0.2,1.7-1,2-2.1
		c0.5-2.6,1-5.3,1.4-7.9c0.8-4.7,1.7-9.4,2.5-14.1c0.2-1.1,0.4-2.2,0.6-3.3c-1.7,0-3.3,0-5,0c-1.1,5.9-2.1,11.8-3.2,17.9
		C1103.4,146,1103.2,145.8,1103.1,145.5z M1056.9,156.2c0.1,0,0.2,0,0.2,0c2-0.1,4,0,5.9-0.3c4.4-0.8,7.9-4.4,8.4-8.9
		c0.3-3,0.3-6.1,0-9.2c-0.4-4.8-4.4-8.9-9.2-9.4c-1.7-0.2-3.4-0.2-5.1-0.1c-1.8,0-3.7,0-5.5,0.2c-4.4,0.5-8.3,4.1-9.1,8.5
		c-0.6,3.4-0.5,6.8-0.1,10.2c0.5,4.6,4.5,8.4,9.1,9L1056.9,156.2z M1052.2,151.1c-2.9-0.4-4.8-2.5-5-5.4c-0.1-2.4-0.1-4.8,0-7.2
		c0.2-3,2.7-5.1,6-5.3c2.6-0.1,5.2-0.1,7.9,0.1c2.9,0.1,5.3,2.6,5.5,5.5c0.1,2.3,0.1,4.7,0,7c-0.1,2.8-2.5,5.2-5.3,5.4
		c-1.5,0.1-2.9,0-4.4,0L1052.2,151.1z M1018.4,149.1c3.4,0,6.7,0,10.1,0c0.7,0,1.5-0.1,2.2-0.2c3.5-0.6,6.3-3.2,7-6.5
		c0.5-2.2,0.4-4.5,0-6.8c-0.7-3.9-4.1-6.9-8-7c-4.1-0.1-8.2-0.1-12.4,0c-3.9,0.1-6.7,2.9-6.7,6.8c0,6.6,0,13.2,0,19.7
		c0,0.2,0,0.4,0,0.6c1.7,0,3.3,0,4.9,0c0-0.3,0-0.6,0-0.8c0-6.4,0-12.8,0-19.1c0-1.6,0.6-2.2,2.1-2.2c3.6,0,7.3,0,10.9,0
		c2.3,0,3.7,1.2,4.1,3.4c0.2,1.2,0.2,2.5,0.1,3.7c-0.2,1.6-1.2,2.7-2.8,3.2c-0.6,0.2-1.2,0.3-1.7,0.3c-3.4,0-6.7,0-10.1,0
		c-0.2,0-0.5,0-0.7,0c0,1.7,0,3.3,0,5C1017.9,149.1,1018.2,149.1,1018.4,149.1z M1141,150.8c-5.6,0-11.3,0-16.9,0
		c-1.6,0-2.2-0.6-2.2-2.3c0-4.8,0-9.5,0-14.3c0-0.2,0-0.4,0-0.7c6.6,0,13.2,0,19.7,0c0-1.7,0-3.3,0-5c-0.2,0-0.4,0-0.6,0
		c-7.1,0-14.2,0-21.3,0c-1.9,0-2.8,0.9-2.8,2.8c0,5.8,0,11.7,0,17.5c0,0.7,0.1,1.4,0.3,2c0.8,2.9,3.4,4.8,6.6,4.8
		c5.7,0,11.5,0,17.2,0c0.2,0,0.4,0,0.6,0c0-1.7,0-3.3,0-5C1141.4,150.8,1141.2,150.8,1141,150.8z M1123.9,139.7c0,1.7,0,3.3,0,4.9
		c5.2,0,10.4,0,15.6,0c0-1.7,0-3.3,0-4.9C1134.2,139.7,1129,139.7,1123.9,139.7z"/>
</g>
</svg>
